<svg width="219" height="212" viewBox="0 0 219 212" fill="none" xmlns="http://www.w3.org/2000/svg">
<path d="M189.713 23.8667C185.967 21.6938 184.269 23.5035 182.906 21.6938C181.544 19.8842 186.651 15.1878 176.418 10.4915C176.418 10.4915 175.74 0.372396 161.778 0.00921177C147.817 -0.353973 151.58 10.1283 147.835 12.6581C144.09 15.1878 143.069 11.2366 139.324 13.7413C135.578 16.2461 137.283 21.3307 134.222 22.0508C131.161 22.7709 127.067 18.8009 123.322 21.3307C119.576 23.8604 119.576 26.027 117.878 26.027C116.179 26.027 112.77 24.5805 110.729 26.027C108.688 27.4735 106.299 29.2831 106.299 29.2831H192.414C192.414 29.2831 193.458 26.0333 189.713 23.8667Z" fill="#FBFBFB"/>
<path opacity="0.5" d="M189.713 23.8667C185.967 21.6938 184.269 23.5035 182.906 21.6938C181.544 19.8842 186.651 15.1878 176.418 10.4915C176.418 10.4915 175.74 0.372396 161.778 0.00921177C147.817 -0.353973 151.58 10.1283 147.835 12.6581C144.09 15.1878 143.069 11.2366 139.324 13.7413C135.578 16.2461 137.283 21.3307 134.222 22.0508C131.161 22.7709 127.067 18.8009 123.322 21.3307C119.576 23.8604 119.576 26.027 117.878 26.027C116.179 26.027 112.77 24.5805 110.729 26.027C108.688 27.4735 106.299 29.2831 106.299 29.2831H192.414C192.414 29.2831 193.458 26.0333 189.713 23.8667Z" fill="white"/>
<path d="M92.0549 105.101C89.4243 103.579 88.2269 104.844 87.2714 103.579C86.3159 102.315 89.902 99.0083 82.7297 95.7083C82.7297 95.7083 82.252 88.6012 72.4431 88.3444C62.6343 88.0877 65.2708 95.4516 62.6402 97.2299C60.0096 99.0083 59.2959 96.2155 56.6653 97.9939C54.0346 99.7722 55.2261 103.323 53.0791 103.83C50.9321 104.337 48.0538 101.544 45.4114 103.323C42.7689 105.101 42.7807 106.623 41.5893 106.623C40.3978 106.623 37.9972 105.608 36.564 106.623C35.1307 107.637 33.4556 108.908 33.4556 108.908H93.9659C93.9659 108.908 94.6855 106.623 92.0549 105.101Z" fill="white"/>
<path opacity="0.5" d="M92.0549 105.101C89.4243 103.579 88.2269 104.844 87.2714 103.579C86.3159 102.315 89.902 99.0083 82.7297 95.7083C82.7297 95.7083 82.252 88.6012 72.4431 88.3444C62.6343 88.0877 65.2708 95.4516 62.6402 97.2299C60.0096 99.0083 59.2959 96.2155 56.6653 97.9939C54.0346 99.7722 55.2261 103.323 53.0791 103.83C50.9321 104.337 48.0538 101.544 45.4114 103.323C42.7689 105.101 42.7807 106.623 41.5893 106.623C40.3978 106.623 37.9972 105.608 36.564 106.623C35.1307 107.637 33.4556 108.908 33.4556 108.908H93.9659C93.9659 108.908 94.6855 106.623 92.0549 105.101Z" fill="white"/>
<path d="M166.839 210.907H204.116C203.402 206.066 200.471 206.918 200.082 199.416C199.887 195.659 203.184 190.963 202.895 186.004C202.659 181.915 198.866 177.725 198.572 173.048C198.306 168.827 201.521 164.144 201.232 159.597C200.931 155.302 197.103 151.175 196.743 146.704C196.413 142.321 199.586 137.619 199.209 133.21C198.831 128.802 194.921 124.751 194.49 120.405C194.059 115.94 197.132 111.131 196.661 106.861C196.165 102.321 192.131 98.4009 191.582 94.218C190.992 89.5655 193.829 84.5936 193.163 80.5735C192.343 75.6517 188.025 72.0888 187.117 68.4569C185.424 61.6879 185.637 55.1694 183.637 54.7436C181.508 54.2927 181.018 60.686 179.402 67.8307C178.588 71.4188 174.371 75.0569 173.675 79.9849C173.115 83.9737 176.099 88.8266 175.61 93.4603C175.173 97.6119 171.239 101.601 170.856 106.115C170.496 110.361 173.687 115.038 173.374 119.478C173.067 123.792 169.245 127.906 168.992 132.29C168.738 136.673 172.018 141.257 171.793 145.584C171.563 150.017 167.818 154.206 167.623 158.47C167.423 162.985 170.779 167.537 170.614 171.72C170.431 176.36 166.739 180.606 166.603 184.663C166.438 189.585 169.841 194.125 169.735 197.876C169.511 206.016 166.001 204.319 165.877 210.869L166.839 210.907Z" fill="#FBFBFB"/>
<path d="M182.841 67.7493V209.078" stroke="black" stroke-miterlimit="10"/>
<path d="M188.663 82.5647L182.593 88.1315L177.627 81.0995" stroke="black" stroke-miterlimit="10"/>
<path d="M188.663 107.167L182.593 112.728L177.627 105.702" stroke="black" stroke-miterlimit="10"/>
<path d="M188.663 130.299L182.593 135.865L177.627 128.833" stroke="black" stroke-miterlimit="10"/>
<path d="M188.663 157.832L182.593 163.392L177.627 156.366" stroke="black" stroke-miterlimit="10"/>
<path d="M188.663 185.653L182.593 191.213L177.627 184.188" stroke="black" stroke-miterlimit="10"/>
<path d="M141.447 210.907H170.224C169.67 207.15 167.411 207.826 167.11 202.04C166.957 199.122 169.499 195.515 169.281 191.683C169.098 188.552 166.172 185.29 165.942 181.664C165.736 178.408 168.237 174.776 167.995 171.282C167.765 167.963 164.798 164.782 164.533 161.332C164.267 157.882 166.727 154.312 166.438 150.912C166.149 147.512 163.123 144.381 162.804 141.031C162.474 137.581 164.845 133.874 164.479 130.568C164.096 127.067 160.982 124.043 160.563 120.818C160.091 117.224 162.297 113.385 161.778 110.286C161.147 106.485 157.814 103.73 157.118 100.931C155.809 95.7082 155.974 90.6675 154.429 90.3418C152.783 89.9912 152.406 94.9255 151.161 100.448C150.536 103.216 147.274 106.028 146.737 109.841C146.307 112.922 148.607 116.666 148.23 120.242C147.893 123.448 144.862 126.504 144.561 130.01C144.284 133.285 146.749 136.898 146.507 140.324C146.271 143.655 143.328 146.83 143.122 150.211C142.915 153.592 145.481 157.136 145.286 160.474C145.092 163.812 142.219 167.13 142.072 170.424C141.913 173.906 144.502 177.418 144.378 180.65C144.237 184.231 141.388 187.538 141.282 190.668C141.152 194.463 143.782 197.976 143.7 200.863C143.523 207.124 140.816 205.841 140.721 210.882L141.447 210.907Z" fill="#FBFBFB"/>
<path d="M153.804 100.405V209.498" stroke="black" stroke-miterlimit="10"/>
<path d="M158.292 111.839L153.609 116.134L149.775 110.705" stroke="black" stroke-miterlimit="10"/>
<path d="M158.292 130.824L153.609 135.12L149.775 129.697" stroke="black" stroke-miterlimit="10"/>
<path d="M158.292 148.683L153.609 152.979L149.775 147.556" stroke="black" stroke-miterlimit="10"/>
<path d="M158.292 169.936L153.609 174.231L149.775 168.802" stroke="black" stroke-miterlimit="10"/>
<path d="M158.292 191.414L153.609 195.703L149.775 190.28" stroke="black" stroke-miterlimit="10"/>
<path d="M115.795 210.612V84.0112H122.089V210.612" fill="#2E353A"/>
<path d="M115.795 210.612V84.0112H122.089V210.612" stroke="#2E353A" stroke-linecap="round" stroke-linejoin="round"/>
<path d="M112.651 210.612V84.0112H118.945V210.612" fill="#FBFBFB"/>
<path d="M112.651 210.612V84.0112H118.945V210.612" stroke="#2E353A" stroke-linecap="round" stroke-linejoin="round"/>
<g style="mix-blend-mode:multiply" opacity="0.3">
<path d="M118.945 84.0112H112.651V99.0396H118.945V84.0112Z" fill="#2E353A"/>
</g>
<path d="M139.506 34.5868H92.8748L113.2 87.5867H159.838V56.165C159.838 53.3308 159.312 50.5243 158.29 47.9059C157.268 45.2875 155.771 42.9085 153.883 40.9047C151.995 38.9009 149.753 37.3116 147.287 36.2275C144.82 35.1435 142.176 34.586 139.506 34.5868Z" fill="#FBFBFB" stroke="#2E353A" stroke-linecap="round" stroke-linejoin="round"/>
<g style="mix-blend-mode:multiply" opacity="0.3">
<path d="M109.643 78.3067L113.182 87.5867H159.838V56.165C159.838 55.6891 159.838 55.2132 159.79 54.7435H109.655L109.643 78.3067Z" fill="black"/>
</g>
<path d="M139.164 54.7435H134.257" stroke="#2E353A" stroke-linecap="round" stroke-linejoin="round"/>
<path d="M159.791 54.7435H144.939" stroke="#2E353A" stroke-linecap="round" stroke-linejoin="round"/>
<path d="M92.8747 34.5868C98.2669 34.5868 103.438 36.8609 107.251 40.9087C111.064 44.9566 113.206 50.4467 113.206 56.1712V87.593H72.5433V56.165C72.5449 50.4415 74.6876 44.953 78.5003 40.9065C82.313 36.86 87.4835 34.5868 92.8747 34.5868Z" fill="#2E353A" stroke="#2E353A" stroke-linecap="round" stroke-linejoin="round"/>
<path d="M113.2 84.0112H78.1644V87.5867H113.2V84.0112Z" fill="#FBFBFB" stroke="#2E353A" stroke-linecap="round" stroke-linejoin="round"/>
<path d="M113.2 84.0112H40.6926V87.5867H113.2V84.0112Z" fill="#FBFBFB" stroke="#2E353A" stroke-linecap="round" stroke-linejoin="round"/>
<path opacity="0.3" d="M113.2 84.0112H78.1644V87.5867H113.2V84.0112Z" fill="black"/>
<path d="M142.538 21.8127H127.987V32.6645H142.538V21.8127Z" fill="#2E353A" stroke="#2E353A" stroke-linecap="round" stroke-linejoin="round"/>
<path d="M129.167 21.8127H126.023V55.6265H129.167V21.8127Z" fill="white" stroke="#2E353A" stroke-linecap="round" stroke-linejoin="round"/>
<path d="M127.592 60.2164C129.546 60.2164 131.131 58.5343 131.131 56.4594C131.131 54.3844 129.546 52.7023 127.592 52.7023C125.637 52.7023 124.053 54.3844 124.053 56.4594C124.053 58.5343 125.637 60.2164 127.592 60.2164Z" fill="#2E353A" stroke="#2E353A" stroke-linecap="round" stroke-linejoin="round"/>
<path d="M208.398 168.759H218.231" stroke="#2E353A" stroke-linecap="round" stroke-linejoin="round"/>
<path d="M208.398 184.2H218.231" stroke="#2E353A" stroke-linecap="round" stroke-linejoin="round"/>
<path d="M1.3689 183.787H207.219V169.172H1.3689" fill="white"/>
<path d="M1.3689 183.787H207.219V169.172H1.3689" stroke="#2E353A" stroke-linecap="round" stroke-linejoin="round"/>
<path d="M15.6782 210.713V137.187C15.6783 137.006 15.7129 136.828 15.7798 136.662C15.8467 136.496 15.9446 136.347 16.0675 136.222L21.4467 130.843C21.689 130.603 22.0109 130.474 22.3424 130.484C22.6739 130.495 22.988 130.644 23.2162 130.9L27.9348 136.229C28.1489 136.477 28.2687 136.8 28.271 137.136V210.713" fill="#2E353A"/>
<path d="M15.6782 210.713V137.187C15.6783 137.006 15.7129 136.828 15.7798 136.662C15.8467 136.496 15.9446 136.347 16.0675 136.222L21.4467 130.843C21.689 130.603 22.0109 130.474 22.3424 130.484C22.6739 130.495 22.988 130.644 23.2162 130.9L27.9348 136.229C28.1489 136.477 28.2687 136.8 28.271 137.136V210.713" stroke="#2E353A" stroke-linecap="round" stroke-linejoin="round"/>
<path d="M14.1505 211.339V137.187C14.1503 137.006 14.1853 136.827 14.2533 136.661C14.3213 136.495 14.4209 136.346 14.5457 136.222L19.9249 130.843C20.0445 130.724 20.1852 130.63 20.3389 130.568C20.4926 130.506 20.6563 130.477 20.8207 130.482C20.985 130.487 21.1468 130.527 21.2967 130.598C21.4467 130.67 21.5818 130.773 21.6944 130.9L26.413 136.229C26.6296 136.475 26.7498 136.8 26.7492 137.137V211.339" fill="white"/>
<path d="M14.1505 211.339V137.187C14.1503 137.006 14.1853 136.827 14.2533 136.661C14.3213 136.495 14.4209 136.346 14.5457 136.222L19.9249 130.843C20.0445 130.724 20.1852 130.63 20.3389 130.568C20.4926 130.506 20.6563 130.477 20.8207 130.482C20.985 130.487 21.1468 130.527 21.2967 130.598C21.4467 130.67 21.5818 130.773 21.6944 130.9L26.413 136.229C26.6296 136.475 26.7498 136.8 26.7492 137.137V211.339" stroke="#2E353A" stroke-linecap="round" stroke-linejoin="round"/>
<path d="M61.0356 210.713V137.187C61.0358 137.006 61.0703 136.828 61.1372 136.662C61.2041 136.496 61.302 136.347 61.4249 136.222L66.81 130.843C66.9296 130.724 67.0703 130.63 67.224 130.568C67.3777 130.506 67.5414 130.477 67.7058 130.482C67.8702 130.487 68.0319 130.527 68.1819 130.598C68.3318 130.67 68.4669 130.773 68.5795 130.9L73.2981 136.229C73.5147 136.475 73.6349 136.8 73.6344 137.137V210.713" fill="#2E353A"/>
<path d="M61.0356 210.713V137.187C61.0358 137.006 61.0703 136.828 61.1372 136.662C61.2041 136.496 61.302 136.347 61.4249 136.222L66.81 130.843C66.9296 130.724 67.0703 130.63 67.224 130.568C67.3777 130.506 67.5414 130.477 67.7058 130.482C67.8702 130.487 68.0319 130.527 68.1819 130.598C68.3318 130.67 68.4669 130.773 68.5795 130.9L73.2981 136.229C73.5147 136.475 73.6349 136.8 73.6344 137.137V210.713" stroke="#2E353A" stroke-linecap="round" stroke-linejoin="round"/>
<path d="M59.7617 211.339V137.187C59.7615 137.006 59.7966 136.827 59.8646 136.661C59.9326 136.495 60.0321 136.345 60.1569 136.222L65.5361 130.843C65.7784 130.603 66.1003 130.474 66.4318 130.484C66.7633 130.495 67.0774 130.644 67.3056 130.9L72.0242 136.229C72.2424 136.474 72.3647 136.799 72.3663 137.136V211.339" fill="white"/>
<path d="M59.7617 211.339V137.187C59.7615 137.006 59.7966 136.827 59.8646 136.661C59.9326 136.495 60.0321 136.345 60.1569 136.222L65.5361 130.843C65.7784 130.603 66.1003 130.474 66.4318 130.484C66.7633 130.495 67.0774 130.644 67.3056 130.9L72.0242 136.229C72.2424 136.474 72.3647 136.799 72.3663 137.136V211.339" stroke="#2E353A" stroke-linecap="round" stroke-linejoin="round"/>
<path d="M106.647 210.713V137.187C106.647 137.006 106.682 136.827 106.75 136.661C106.818 136.495 106.918 136.345 107.043 136.222L112.422 130.843C112.664 130.603 112.986 130.474 113.317 130.484C113.649 130.495 113.963 130.644 114.191 130.9L118.91 136.229C119.128 136.474 119.25 136.799 119.252 137.136V211.339" fill="#2E353A"/>
<path d="M106.647 210.713V137.187C106.647 137.006 106.682 136.827 106.75 136.661C106.818 136.495 106.918 136.345 107.043 136.222L112.422 130.843C112.664 130.603 112.986 130.474 113.317 130.484C113.649 130.495 113.963 130.644 114.191 130.9L118.91 136.229C119.128 136.474 119.25 136.799 119.252 137.136V211.339" stroke="#2E353A" stroke-linecap="round" stroke-linejoin="round"/>
<path d="M105.379 211.339V137.187C105.379 137.006 105.414 136.828 105.481 136.662C105.548 136.496 105.645 136.347 105.768 136.222L111.153 130.843C111.273 130.724 111.414 130.63 111.567 130.568C111.721 130.506 111.885 130.477 112.049 130.482C112.214 130.487 112.375 130.527 112.525 130.598C112.675 130.67 112.81 130.773 112.923 130.9L117.642 136.229C117.858 136.475 117.978 136.8 117.978 137.137V211.339" fill="white"/>
<path d="M105.379 211.339V137.187C105.379 137.006 105.414 136.828 105.481 136.662C105.548 136.496 105.645 136.347 105.768 136.222L111.153 130.843C111.273 130.724 111.414 130.63 111.567 130.568C111.721 130.506 111.885 130.477 112.049 130.482C112.214 130.487 112.375 130.527 112.525 130.598C112.675 130.67 112.81 130.773 112.923 130.9L117.642 136.229C117.858 136.475 117.978 136.8 117.978 137.137V211.339" stroke="#2E353A" stroke-linecap="round" stroke-linejoin="round"/>
<path d="M152.264 210.713V137.187C152.265 137.006 152.299 136.828 152.366 136.662C152.433 136.496 152.531 136.347 152.654 136.222L158.033 130.843C158.275 130.603 158.597 130.474 158.929 130.484C159.26 130.495 159.574 130.644 159.802 130.9L164.521 136.229C164.735 136.477 164.855 136.8 164.857 137.136V210.713" fill="#2E353A"/>
<path d="M152.264 210.713V137.187C152.265 137.006 152.299 136.828 152.366 136.662C152.433 136.496 152.531 136.347 152.654 136.222L158.033 130.843C158.275 130.603 158.597 130.474 158.929 130.484C159.26 130.495 159.574 130.644 159.802 130.9L164.521 136.229C164.735 136.477 164.855 136.8 164.857 137.136V210.713" stroke="#2E353A" stroke-linecap="round" stroke-linejoin="round"/>
<path d="M150.99 211.339V137.187C150.99 137.006 151.025 136.827 151.093 136.661C151.161 136.495 151.261 136.346 151.385 136.222L156.765 130.843C156.884 130.724 157.025 130.63 157.179 130.568C157.332 130.506 157.496 130.477 157.66 130.482C157.825 130.487 157.987 130.527 158.136 130.598C158.286 130.67 158.422 130.773 158.534 130.9L163.253 136.229C163.469 136.475 163.589 136.8 163.589 137.137V211.339" fill="white"/>
<path d="M150.99 211.339V137.187C150.99 137.006 151.025 136.827 151.093 136.661C151.161 136.495 151.261 136.346 151.385 136.222L156.765 130.843C156.884 130.724 157.025 130.63 157.179 130.568C157.332 130.506 157.496 130.477 157.66 130.482C157.825 130.487 157.987 130.527 158.136 130.598C158.286 130.67 158.422 130.773 158.534 130.9L163.253 136.229C163.469 136.475 163.589 136.8 163.589 137.137V211.339" stroke="#2E353A" stroke-linecap="round" stroke-linejoin="round"/>
<path d="M197.876 210.713V137.187C197.876 137.006 197.91 136.828 197.977 136.662C198.044 136.496 198.142 136.347 198.265 136.222L203.65 130.843C203.77 130.724 203.91 130.63 204.064 130.568C204.218 130.506 204.382 130.477 204.546 130.482C204.71 130.487 204.872 130.527 205.022 130.598C205.172 130.67 205.307 130.773 205.42 130.9L210.138 136.229C210.355 136.475 210.475 136.8 210.474 137.137V210.713" fill="#2E353A"/>
<path d="M197.876 210.713V137.187C197.876 137.006 197.91 136.828 197.977 136.662C198.044 136.496 198.142 136.347 198.265 136.222L203.65 130.843C203.77 130.724 203.91 130.63 204.064 130.568C204.218 130.506 204.382 130.477 204.546 130.482C204.71 130.487 204.872 130.527 205.022 130.598C205.172 130.67 205.307 130.773 205.42 130.9L210.138 136.229C210.355 136.475 210.475 136.8 210.474 137.137V210.713" stroke="#2E353A" stroke-linecap="round" stroke-linejoin="round"/>
<path d="M196.602 211.339V137.187C196.602 137.006 196.637 136.827 196.705 136.661C196.773 136.495 196.872 136.345 196.997 136.222L202.376 130.843C202.618 130.603 202.94 130.474 203.272 130.484C203.603 130.495 203.917 130.644 204.146 130.9L208.864 136.229C209.083 136.474 209.205 136.799 209.206 137.136V211.339" fill="white"/>
<path d="M196.602 211.339V137.187C196.602 137.006 196.637 136.827 196.705 136.661C196.773 136.495 196.872 136.345 196.997 136.222L202.376 130.843C202.618 130.603 202.94 130.474 203.272 130.484C203.603 130.495 203.917 130.644 204.146 130.9L208.864 136.229C209.083 136.474 209.205 136.799 209.206 137.136V211.339" stroke="#2E353A" stroke-linecap="round" stroke-linejoin="round"/>
<path d="M21.6885 130.9V136.26" stroke="#2E353A" stroke-linecap="round" stroke-linejoin="round"/>
<path d="M23.7115 133.667V146.354" stroke="#2E353A" stroke-linecap="round" stroke-linejoin="round"/>
<path d="M62.2449 134.707V150.756" stroke="#2E353A" stroke-linecap="round" stroke-linejoin="round"/>
<path d="M64.1973 132.634V139.622" stroke="#2E353A" stroke-linecap="round" stroke-linejoin="round"/>
<path d="M111.153 130.843V146.617" stroke="#2E353A" stroke-linecap="round" stroke-linejoin="round"/>
<path d="M113.955 132.115V155.421" stroke="#2E353A" stroke-linecap="round" stroke-linejoin="round"/>
<path d="M153.22 134.707V152.309" stroke="#2E353A" stroke-linecap="round" stroke-linejoin="round"/>
<path d="M159.561 132.634V137.036" stroke="#2E353A" stroke-linecap="round" stroke-linejoin="round"/>
<path d="M200.778 132.371V141.695" stroke="#2E353A" stroke-linecap="round" stroke-linejoin="round"/>
<path d="M206.145 133.411V160.336" stroke="#2E353A" stroke-linecap="round" stroke-linejoin="round"/>
<path d="M196.389 172.766H191.022" stroke="#2E353A" stroke-linecap="round" stroke-linejoin="round"/>
<path d="M196.389 177.168H177.609" stroke="#2E353A" stroke-linecap="round" stroke-linejoin="round"/>
<path d="M126.389 177.168H117.854" stroke="#2E353A" stroke-linecap="round" stroke-linejoin="round"/>
<path d="M81.5147 177.168H72.9799" stroke="#2E353A" stroke-linecap="round" stroke-linejoin="round"/>
<path d="M13.9558 174.839H5.42102" stroke="#2E353A" stroke-linecap="round" stroke-linejoin="round"/>
<path d="M13.9557 178.978H10.5406" stroke="#2E353A" stroke-linecap="round" stroke-linejoin="round"/>
<path d="M122 174.839H117.854" stroke="#2E353A" stroke-linecap="round" stroke-linejoin="round"/>
<path d="M76.6367 179.754H72.4902" stroke="#2E353A" stroke-linecap="round" stroke-linejoin="round"/>
<path d="M59.3196 179.754H55.1731" stroke="#2E353A" stroke-linecap="round" stroke-linejoin="round"/>
<path d="M212.969 177.168H209.312" stroke="#2E353A" stroke-linecap="round" stroke-linejoin="round"/>
<path d="M217.847 177.168H215.653" stroke="#2E353A" stroke-linecap="round" stroke-linejoin="round"/>
<path d="M26.537 150.249C26.537 150.249 25.0625 163.705 23.293 177.475C21.5235 191.245 24.7676 205.334 25.6523 206.586" stroke="#2E353A" stroke-linecap="round" stroke-linejoin="round"/>
<path d="M20.7035 177.488C20.9866 174.801 21.2225 173.104 21.2225 173.104" stroke="#2E353A" stroke-linecap="round" stroke-linejoin="round"/>
<path d="M25.0562 205.021C25.0562 205.021 19.7478 203.768 19.7478 193.749C19.7478 189.635 19.9955 185.421 20.2904 181.852" stroke="#2E353A" stroke-linecap="round" stroke-linejoin="round"/>
<path d="M69.5942 134.281C69.5942 134.281 70.7739 135.22 68.7095 145.865C66.6451 156.511 66.94 172.165 69.5942 180.932" stroke="#2E353A" stroke-linecap="round" stroke-linejoin="round"/>
<path d="M72.5434 154.006C72.5434 154.006 69.5942 163.399 71.6586 176.548" stroke="#2E353A" stroke-linecap="round" stroke-linejoin="round"/>
<path d="M106.163 159.948C106.163 159.948 107.638 169.028 109.113 178.414C110.587 187.801 109.407 200.957 108.228 204.395C107.048 207.832 105.869 210.656 105.869 210.656" stroke="#2E353A" stroke-linecap="round" stroke-linejoin="round"/>
<path d="M111.72 206.054C110.404 210.337 108.771 205.334 108.771 205.334" stroke="#2E353A" stroke-linecap="round" stroke-linejoin="round"/>
<path d="M111.667 174.043C111.667 174.043 114.445 189.266 112.876 200.725" stroke="#2E353A" stroke-linecap="round" stroke-linejoin="round"/>
<path d="M105.574 179.053C105.574 179.053 108.523 185.628 105.869 191.89" stroke="#2E353A" stroke-linecap="round" stroke-linejoin="round"/>
<path d="M160.604 179.98C160.999 181.894 161.518 183.777 162.156 185.615" stroke="#2E353A" stroke-linecap="round" stroke-linejoin="round"/>
<path d="M163.041 147.431C161.169 153.737 159.982 160.25 159.502 166.842C159.326 170.178 159.502 173.524 160.027 176.818" stroke="#2E353A" stroke-linecap="round" stroke-linejoin="round"/>
<path d="M157.437 176.223C157.437 176.223 160.091 186.868 161.566 190.625C163.041 194.382 162.451 203.455 160.681 207.838" stroke="#2E353A" stroke-linecap="round" stroke-linejoin="round"/>
<path d="M197.239 152.127C197.239 152.127 203.137 163.398 197.534 181.864" stroke="#2E353A" stroke-linecap="round" stroke-linejoin="round"/>
<path d="M202.659 171.376C202.695 174.895 202.4 179.354 201.073 183.111C198.418 190.625 197.239 193.129 197.239 193.129" stroke="#2E353A" stroke-linecap="round" stroke-linejoin="round"/>
<path d="M202.252 165.277C202.252 165.277 202.447 166.623 202.565 168.696" stroke="#2E353A" stroke-linecap="round" stroke-linejoin="round"/>
</svg>
