<svg width="224" height="158" viewBox="0 0 224 158" fill="none" xmlns="http://www.w3.org/2000/svg">
<path d="M78.693 41.2659C86.9034 45.693 101.177 52.7876 114.342 56.3568" stroke="white" stroke-linecap="round" stroke-linejoin="round" stroke-dasharray="2 4"/>
<path d="M57 30C57 30 74.4345 38.9928 78.693 41.2909" stroke="#2E353A" stroke-linecap="round" stroke-linejoin="round" stroke-dasharray="2 4"/>
<path d="M42.8486 27.1831L48.7528 12.2925L5.93726 1.20288L42.8486 27.1831Z" stroke="#2E353A" stroke-width="1.2629" stroke-linecap="round" stroke-linejoin="round"/>
<path d="M45.727 14.0959L42.8486 27.1831L5.93726 1.20288L45.727 14.0959Z" stroke="#2E353A" stroke-width="1.2629" stroke-linecap="round" stroke-linejoin="round"/>
<path d="M45.727 14.0959L39.0089 20.2075L5.93726 1.20288L45.727 14.0959Z" stroke="#2E353A" stroke-width="1.2629" stroke-linecap="round" stroke-linejoin="round"/>
<path d="M48.7528 12.2925L54.7337 9.71268L5.93726 1.20288L48.7528 12.2925Z" stroke="#2E353A" stroke-width="1.2629" stroke-linecap="round" stroke-linejoin="round"/>
<path d="M57.7563 65.6868V49.5376L101.274 56.9641L57.7563 65.6868Z" fill="white" stroke="#2E353A" stroke-width="1.2629" stroke-linecap="round" stroke-linejoin="round"/>
<path d="M59.8856 52.4431L57.7563 65.6868L101.274 56.9641L59.8856 52.4431Z" fill="#FBFBFB" stroke="#2E353A" stroke-width="1.2629" stroke-linecap="round" stroke-linejoin="round"/>
<path d="M59.8859 52.4431L63.8436 60.8402L101.274 56.9641L59.8859 52.4431Z" fill="white" stroke="#2E353A" stroke-width="1.2629" stroke-linecap="round" stroke-linejoin="round"/>
<path d="M57.7565 49.5376L53.1913 44.6909L101.274 56.9641L57.7565 49.5376Z" fill="white" stroke="#2E353A" stroke-width="1.2629" stroke-linecap="round" stroke-linejoin="round"/>
<path d="M73.3396 65.3863L77.1145 64.5723" stroke="#2E353A" stroke-linecap="round" stroke-linejoin="round"/>
<path d="M60.0804 68.2478L69.5708 66.2002" stroke="#2E353A" stroke-linecap="round" stroke-linejoin="round"/>
<path d="M57 64.6912C57 64.6912 8.30291 70.953 1.81481 103.514C-4.67328 136.076 29.5367 137.954 35.435 122.3C41.3332 106.645 15.3808 100.383 9.48257 115.412C3.5843 130.44 21.2791 156.113 45.462 157.366C65.5574 158.405 121.898 133.502 156.939 127.209C156.939 127.209 182.892 119.582 223 121.254" stroke="#E3BF27" stroke-linecap="round" stroke-linejoin="round" stroke-dasharray="2 4"/>
</svg>
