<svg width="224" height="148" viewBox="0 0 224 148" fill="none" xmlns="http://www.w3.org/2000/svg">
<path d="M78.693 31.2659C86.9034 35.693 101.177 42.7876 114.342 46.3568" stroke="white" stroke-linecap="round" stroke-linejoin="round" stroke-dasharray="2 4"/>
<path d="M71.8038 27.4148C71.8038 27.4148 74.4345 28.9928 78.693 31.2909" stroke="#2E353A" stroke-linecap="round" stroke-linejoin="round" stroke-dasharray="2 4"/>
<path d="M68.8486 27.1831L74.7528 12.2925L31.9373 1.20288L68.8486 27.1831Z" fill="white" stroke="#2E353A" stroke-width="1.2629" stroke-linecap="round" stroke-linejoin="round"/>
<path d="M71.727 14.0959L68.8486 27.1831L31.9373 1.20288L71.727 14.0959Z" fill="#FBFBFB" stroke="#2E353A" stroke-width="1.2629" stroke-linecap="round" stroke-linejoin="round"/>
<path d="M71.727 14.0959L65.0089 20.2075L31.9373 1.20288L71.727 14.0959Z" fill="white" stroke="#2E353A" stroke-width="1.2629" stroke-linecap="round" stroke-linejoin="round"/>
<path d="M74.7528 12.2925L80.7337 9.71268L31.9373 1.20288L74.7528 12.2925Z" fill="white" stroke="#2E353A" stroke-width="1.2629" stroke-linecap="round" stroke-linejoin="round"/>
<path d="M60.5322 24.8662L61.9183 25.7679" stroke="#2E353A" stroke-linecap="round" stroke-linejoin="round"/>
<path d="M52.9705 19.9445L57.6124 22.9626" stroke="#2E353A" stroke-linecap="round" stroke-linejoin="round"/>
<path d="M47.7563 55.6868V39.5376L91.2738 46.9641L47.7563 55.6868Z" fill="white" stroke="#2E353A" stroke-width="1.2629" stroke-linecap="round" stroke-linejoin="round"/>
<path d="M49.8856 42.4431L47.7563 55.6868L91.2738 46.9641L49.8856 42.4431Z" fill="#FBFBFB" stroke="#2E353A" stroke-width="1.2629" stroke-linecap="round" stroke-linejoin="round"/>
<path d="M49.8859 42.4431L53.8436 50.8402L91.274 46.9641L49.8859 42.4431Z" fill="white" stroke="#2E353A" stroke-width="1.2629" stroke-linecap="round" stroke-linejoin="round"/>
<path d="M47.7565 39.5377L43.1913 34.691L91.274 46.9642L47.7565 39.5377Z" fill="white" stroke="#2E353A" stroke-width="1.2629" stroke-linecap="round" stroke-linejoin="round"/>
<path d="M63.3396 55.3863L67.1145 54.5723" stroke="#2E353A" stroke-linecap="round" stroke-linejoin="round"/>
<path d="M50.0804 58.2479L59.5708 56.2003" stroke="#2E353A" stroke-linecap="round" stroke-linejoin="round"/>
<path d="M42.5129 54.6913C42.5129 54.6913 8.30291 60.9531 1.81481 93.5145C-4.67328 126.076 29.5367 127.954 35.435 112.3C41.3332 96.6454 15.3808 90.3836 9.48257 105.412C3.5843 120.44 21.2791 146.114 45.462 147.366C65.5574 148.405 121.898 123.502 156.939 117.209C156.939 117.209 182.892 109.582 223 111.254" stroke="#2E353A" stroke-linecap="round" stroke-linejoin="round" stroke-dasharray="2 4"/>
</svg>
