<svg width="82" height="117" viewBox="0 0 82 117" fill="none" xmlns="http://www.w3.org/2000/svg">
<path d="M0.445557 50.0795C0.47401 49.5289 0.619558 48.9933 0.870504 48.5158C1.12145 48.0383 1.4708 47.6322 1.89046 47.3301L75.7527 0.449864C76.2004 0.199796 76.6955 0.069458 77.1976 0.069458C77.6998 0.069458 78.1948 0.199796 78.6425 0.449864L80.2708 1.48242C80.6904 1.78411 81.0394 2.19027 81.2894 2.66796C81.5395 3.14565 81.6836 3.68142 81.7102 4.23181V66.4781C81.6828 67.0283 81.5383 67.5637 81.2883 68.0412C81.0383 68.5188 80.6898 68.9251 80.2708 69.2275L6.41967 116.108C5.97198 116.358 5.47692 116.488 4.97476 116.488C4.47261 116.488 3.97755 116.358 3.52987 116.108L1.90157 115.075C1.4816 114.773 1.13203 114.367 0.881045 113.89C0.630059 113.412 0.484693 112.876 0.456674 112.326L0.445557 50.0795Z" fill="white"/>
<path opacity="0.4" d="M0.862305 48.5154L4.96361 51.1181L81.2822 2.66771C81.0381 2.18419 80.6886 1.77481 80.2652 1.4763L78.6647 0.449865C78.219 0.199904 77.7257 0.0695801 77.2254 0.0695801C76.725 0.0695801 76.2318 0.199904 75.786 0.449865L1.89041 47.3301C1.46223 47.6235 1.10855 48.0312 0.862305 48.5154Z" fill="white"/>
<path opacity="0.1" d="M0.445557 50.0795V112.326C0.473576 112.876 0.618942 113.412 0.869928 113.89C1.12091 114.367 1.47049 114.773 1.89046 115.075L3.51875 116.108C3.64389 116.187 3.7761 116.253 3.91332 116.303C4.10667 116.375 4.30578 116.426 4.50795 116.456C4.88762 116.507 5.27232 116.491 5.6472 116.407C5.74323 116.388 5.83793 116.361 5.93062 116.328L6.1029 116.254C5.9932 116.306 5.87501 116.333 5.75557 116.333C5.63612 116.333 5.51794 116.306 5.40823 116.254C5.25443 116.142 5.13199 115.985 5.05449 115.8C4.977 115.616 4.94748 115.411 4.96921 115.21V52.9511C4.95456 52.668 5.01844 52.3868 5.15242 52.1446C5.28639 51.9024 5.48414 51.7106 5.71945 51.5947L4.96921 51.1181L0.862355 48.5154C0.604853 48.9894 0.46141 49.5277 0.445557 50.0795Z" fill="black"/>
<path opacity="0.2" d="M4.9691 51.1181L39.1744 65.1705C40.3572 65.6552 41.6549 65.6827 42.8539 65.2485C44.0528 64.8143 45.0816 63.9443 45.7709 62.7816L51.2615 53.5315L81.56 2.49658L52.3563 53.8797L81.7101 66.5086C81.6857 67.0697 81.5307 67.6146 81.2599 68.091L52.2785 54.0386L45.8765 65.25C45.1673 66.4956 44.0734 67.4185 42.7955 67.8494C41.5176 68.2803 40.1412 68.1904 38.9187 67.5961L34.3729 65.3905L5.40812 116.267C5.25432 116.154 5.13188 115.997 5.05438 115.812C4.97689 115.628 4.94737 115.423 4.9691 115.222V114.189L34.245 65.3539L4.9691 51.1181Z" fill="black"/>
</svg>
