<svg width="36" height="120" viewBox="0 0 36 120" fill="none" xmlns="http://www.w3.org/2000/svg">
<path d="M12.681 119.573C10.7604 119.588 8.87089 119.039 7.20702 117.984C3.2002 115.437 0.905029 110.121 0.905029 103.382C0.905029 91.5414 7.75164 77.9227 16.4655 72.375C21.1726 69.3874 25.8463 69.0635 29.6308 71.4647C33.6321 74.0063 35.9328 79.3279 35.9328 86.0609C35.9328 97.9016 29.0862 111.526 20.3445 117.074C18.0326 118.629 15.3902 119.491 12.681 119.573ZM24.1624 78.4054C22.8096 78.5106 21.5017 78.9829 20.3556 79.7801C14.0203 83.782 8.68527 94.6024 8.68527 103.382C8.68527 106.938 9.5911 109.638 11.1082 110.598C12.8366 111.697 15.2429 110.5 16.5155 109.687C22.8675 105.661 28.2248 94.8406 28.2248 86.0609C28.2248 82.505 27.3189 79.8106 25.8018 78.8453C25.3018 78.5378 24.735 78.3857 24.1624 78.4054Z" fill="#FDE068"/>
<path d="M29.5862 87.9549C29.5862 81.3013 25.7739 78.8452 25.7739 78.8452C27.291 79.8106 28.1968 82.5111 28.1968 86.0608C28.1968 94.8406 22.8396 105.661 16.4876 109.687C15.215 110.5 12.8142 111.697 11.0803 110.598C11.0803 110.598 14.298 112.797 18.7439 110.127C25.1792 106.272 29.5862 96.7346 29.5862 87.9549Z" fill="#FDE068"/>
<path d="M23.4733 4.80716C23.4347 3.66644 22.9953 2.58659 22.2476 1.79458C21.4999 1.00256 20.502 0.560059 19.4637 0.560059C18.4254 0.560059 17.4275 1.00256 16.6798 1.79458C15.9321 2.58659 15.4927 3.66644 15.4541 4.80716V74.8923C15.4828 75.2851 15.6067 75.6623 15.8129 75.9847C16.0191 76.307 16.3001 76.5627 16.6267 76.7252C17.5055 77.2133 18.4763 77.4676 19.4609 77.4676C20.4455 77.4676 21.4163 77.2133 22.2952 76.7252C22.6231 76.5641 22.9056 76.3089 23.1129 75.9864C23.3202 75.6639 23.4447 75.2859 23.4733 74.8923V4.81939V4.80716Z" fill="#FDE068"/>
<path d="M20.2722 20.4726C20.2283 19.5889 19.9956 18.7289 19.593 17.9625C19.1903 17.1961 18.6291 16.5448 17.9548 16.0614C17.7168 15.8696 17.4354 15.7534 17.1414 15.7254C16.8475 15.6974 16.5521 15.7586 16.2876 15.9025L6.4067 22.165L6.16774 22.3177C6.13138 22.3342 6.09762 22.3569 6.06772 22.385C5.89935 22.51 5.74128 22.6511 5.59534 22.8065C5.03807 23.4173 4.69916 24.228 4.64048 25.0907C4.5818 25.9533 4.80726 26.8104 5.2757 27.5055C5.74415 28.2006 6.42433 28.6873 7.19209 28.8767C7.95984 29.0662 8.76397 28.9458 9.45768 28.5375L9.64663 28.4153L19.5998 22.1161C19.834 21.932 20.0197 21.6829 20.1378 21.3942C20.256 21.1055 20.3023 20.7874 20.2722 20.4726Z" fill="#FDE068"/>
<path d="M20.2722 38.0198C20.2274 37.1371 19.9943 36.2784 19.5917 35.5131C19.1891 34.7478 18.6283 34.0975 17.9548 33.6146C17.7178 33.4207 17.4366 33.3026 17.1423 33.2734C16.8481 33.2443 16.5522 33.3053 16.2876 33.4497L4.69501 40.7814L4.45605 40.9341C4.42009 40.9515 4.38643 40.9741 4.35601 41.0013C4.18659 41.1249 4.0284 41.266 3.88363 41.4229C3.52168 41.8191 3.24862 42.3026 3.08607 42.835C2.92352 43.3673 2.87596 43.934 2.94714 44.49C3.01832 45.0461 3.20628 45.5763 3.49616 46.0387C3.78603 46.5011 4.16984 46.8829 4.6172 47.1539C5.09983 47.4355 5.638 47.5823 6.18437 47.5816C6.72919 47.5844 7.26601 47.4373 7.74597 47.1539C7.81266 47.1172 7.87379 47.0683 7.93492 47.0317L19.6053 39.7C19.8439 39.512 20.0318 39.2566 20.1492 38.9608C20.2666 38.6651 20.3091 38.3399 20.2722 38.0198Z" fill="#FDE068"/>
</svg>
