<svg width="36" height="120" viewBox="0 0 36 120" fill="none" xmlns="http://www.w3.org/2000/svg">
<path d="M12.681 119.573C10.7604 119.587 8.87089 119.039 7.20702 117.984C3.2002 115.437 0.905029 110.121 0.905029 103.382C0.905029 91.5412 7.75164 77.9226 16.4655 72.3749C21.1726 69.3872 25.8463 69.0634 29.6308 71.4646C33.6321 74.0062 35.9328 79.3278 35.9328 86.0608C35.9328 97.9015 29.0862 111.526 20.3445 117.074C18.0326 118.629 15.3902 119.491 12.681 119.573ZM24.1624 78.4052C22.8096 78.5105 21.5017 78.9828 20.3556 79.7799C14.0203 83.7818 8.68527 94.6022 8.68527 103.382C8.68527 106.938 9.5911 109.638 11.1082 110.598C12.8366 111.697 15.2429 110.5 16.5155 109.687C22.8675 105.661 28.2248 94.8405 28.2248 86.0608C28.2248 82.5049 27.3189 79.8105 25.8018 78.8451C25.3018 78.5377 24.735 78.3856 24.1624 78.4052Z" fill="#455A64"/>
<path d="M29.5862 87.9549C29.5862 81.3013 25.7739 78.8452 25.7739 78.8452C27.291 79.8106 28.1968 82.5111 28.1968 86.0608C28.1968 94.8406 22.8396 105.661 16.4876 109.687C15.215 110.5 12.8142 111.697 11.0803 110.598C11.0803 110.598 14.298 112.797 18.7439 110.127C25.1792 106.272 29.5862 96.7346 29.5862 87.9549Z" fill="#37474F"/>
<path d="M23.4733 4.80704C23.4347 3.66632 22.9953 2.58647 22.2476 1.79446C21.4999 1.00244 20.502 0.559937 19.4637 0.559937C18.4254 0.559937 17.4275 1.00244 16.6798 1.79446C15.9321 2.58647 15.4927 3.66632 15.4541 4.80704V74.8922C15.4828 75.285 15.6067 75.6622 15.8129 75.9845C16.0191 76.3069 16.3001 76.5626 16.6267 76.7251C17.5055 77.2132 18.4763 77.4675 19.4609 77.4675C20.4455 77.4675 21.4163 77.2132 22.2952 76.7251C22.6231 76.564 22.9056 76.3088 23.1129 75.9863C23.3202 75.6637 23.4447 75.2858 23.4733 74.8922V4.81926V4.80704Z" fill="#37474F"/>
<path d="M20.2722 20.4725C20.2283 19.5887 19.9956 18.7288 19.593 17.9624C19.1903 17.196 18.6291 16.5447 17.9548 16.0612C17.7168 15.8695 17.4354 15.7533 17.1414 15.7252C16.8475 15.6972 16.5521 15.7585 16.2876 15.9024L6.4067 22.1649L6.16774 22.3176C6.13138 22.3341 6.09762 22.3568 6.06772 22.3848C5.89935 22.5099 5.74128 22.651 5.59534 22.8064C5.03807 23.4171 4.69916 24.2279 4.64048 25.0905C4.5818 25.9532 4.80726 26.8103 5.2757 27.5054C5.74415 28.2005 6.42433 28.6871 7.19209 28.8766C7.95984 29.0661 8.76397 28.9457 9.45768 28.5374L9.64663 28.4152L19.5998 22.116C19.834 21.9319 20.0197 21.6828 20.1378 21.3941C20.256 21.1053 20.3023 20.7873 20.2722 20.4725Z" fill="#455A64"/>
<path d="M20.2722 38.0198C20.2274 37.1371 19.9943 36.2784 19.5917 35.5131C19.1891 34.7478 18.6283 34.0975 17.9548 33.6146C17.7178 33.4207 17.4366 33.3026 17.1423 33.2734C16.8481 33.2443 16.5522 33.3053 16.2876 33.4497L4.69501 40.7814L4.45605 40.9341C4.42009 40.9515 4.38643 40.9741 4.35601 41.0013C4.18659 41.1249 4.0284 41.266 3.88363 41.4229C3.52168 41.8191 3.24862 42.3026 3.08607 42.835C2.92352 43.3673 2.87596 43.934 2.94714 44.49C3.01832 45.0461 3.20628 45.5763 3.49616 46.0387C3.78603 46.5011 4.16984 46.8829 4.6172 47.1539C5.09983 47.4355 5.638 47.5823 6.18437 47.5816C6.72919 47.5844 7.26601 47.4373 7.74597 47.1539C7.81266 47.1172 7.87379 47.0683 7.93492 47.0317L19.6053 39.7C19.8439 39.512 20.0318 39.2566 20.1492 38.9608C20.2666 38.6651 20.3091 38.3399 20.2722 38.0198Z" fill="#455A64"/>
</svg>
