<svg width="65" height="189" viewBox="0 0 65 189" fill="none" xmlns="http://www.w3.org/2000/svg">
<path d="M0.910645 42.6582V185.566C0.910645 187.252 1.98876 187.936 3.31696 187.093L61.7132 150.025C62.4134 149.523 62.9962 148.846 63.4142 148.05C63.8323 147.254 64.0739 146.361 64.1195 145.443V2.53539C64.1195 0.8491 63.0414 0.164806 61.7132 1.00795L3.31696 38.0759C2.61613 38.5776 2.03292 39.2541 1.61478 40.0503C1.19664 40.8466 0.955388 41.7401 0.910645 42.6582Z" fill="#FAFAFA" stroke="#E0E0E0" stroke-width="1.16981" stroke-miterlimit="10"/>
<path d="M4.29492 45.3161C4.31369 45.0898 4.38023 44.8714 4.48924 44.6784C4.59826 44.4854 4.74674 44.3229 4.92289 44.2041L11.5917 39.9822C11.9362 39.7623 12.2141 39.9089 12.2141 40.3061C12.1964 40.5319 12.1309 40.7501 12.0228 40.9432C11.9147 41.1362 11.7671 41.2989 11.5917 41.418L4.92289 45.6399C4.57834 45.8598 4.29492 45.7132 4.29492 45.3161Z" fill="black"/>
<path d="M4.29492 48.1632C4.31326 47.9368 4.37962 47.7182 4.48868 47.5251C4.59774 47.332 4.74645 47.1697 4.92289 47.0512L11.5917 42.8294C11.9362 42.6094 12.2141 42.756 12.2141 43.1471C12.1972 43.374 12.1321 43.5934 12.024 43.7876C11.9159 43.9818 11.7678 44.1454 11.5917 44.2651L4.92289 48.4809C4.57834 48.7008 4.29492 48.5603 4.29492 48.1632Z" fill="black"/>
<path d="M4.29492 51.0104C4.31326 50.784 4.37962 50.5655 4.48868 50.3723C4.59774 50.1792 4.74645 50.0169 4.92289 49.8984L11.5917 45.6766C11.9362 45.4566 12.2141 45.5971 12.2141 45.9943C12.1972 46.2204 12.1321 46.4389 12.0239 46.6322C11.9158 46.8254 11.7677 46.9878 11.5917 47.1063L4.92289 51.3281C4.57834 51.5725 4.29492 51.4075 4.29492 51.0104Z" fill="black"/>
<path d="M59.6071 14.3639V13.2214C59.6076 13.2075 59.6047 13.1937 59.5988 13.1814C59.5929 13.1691 59.5842 13.1587 59.5735 13.1513C59.5628 13.1439 59.5505 13.1397 59.5379 13.1391C59.5253 13.1385 59.5127 13.1416 59.5015 13.148L58.7013 13.5452C58.6887 13.552 58.6748 13.5557 58.6608 13.5559C58.6467 13.5562 58.6328 13.5529 58.62 13.5465C58.6072 13.5401 58.5959 13.5306 58.5869 13.5187C58.5779 13.5069 58.5714 13.4929 58.5679 13.478C58.5256 13.3257 58.4658 13.1799 58.3901 13.0442C58.3749 13.011 58.367 12.9744 58.367 12.9373C58.367 12.9001 58.3749 12.8635 58.3901 12.8303L58.9458 11.645C58.9595 11.615 58.9619 11.5803 58.9526 11.5483C58.9432 11.5163 58.9228 11.4896 58.8958 11.474L58.34 11.1074C58.3138 11.0927 58.2835 11.0889 58.255 11.0968C58.2264 11.1046 58.2013 11.1236 58.1844 11.1501L57.5176 12.2499C57.4977 12.2794 57.4717 12.3031 57.4417 12.3191C57.4117 12.3351 57.3786 12.3428 57.3453 12.3415C57.1996 12.3402 57.0542 12.3566 56.9118 12.3904C56.8982 12.3951 56.8839 12.3963 56.8698 12.394C56.8557 12.3916 56.8423 12.3859 56.8306 12.3771C56.8188 12.3682 56.809 12.3566 56.8019 12.3431C56.7948 12.3295 56.7906 12.3144 56.7895 12.2988L56.7006 11.3395C56.7006 11.2723 56.6451 11.2418 56.595 11.2785L55.6948 11.8467C55.6663 11.8672 55.6422 11.8942 55.6239 11.9258C55.6057 11.9574 55.5939 11.9929 55.5892 12.0299L55.5002 13.1297C55.4883 13.2078 55.4554 13.2801 55.4058 13.3374C55.2254 13.5271 55.0582 13.7313 54.9056 13.9484C54.8842 13.9758 54.8559 13.9957 54.8243 14.0055C54.7926 14.0152 54.7591 14.0145 54.7278 14.0034L54.1721 13.7835C54.1422 13.7731 54.1101 13.7741 54.0808 13.7863C54.0516 13.7985 54.0269 13.8211 54.0109 13.8507L53.3496 15.1093C53.3361 15.1392 53.3316 15.173 53.3365 15.2059C53.3415 15.2387 53.3558 15.2691 53.3773 15.2926L53.8442 15.7325C53.867 15.7575 53.8832 15.789 53.8911 15.8234C53.8989 15.8579 53.8981 15.894 53.8886 15.928C53.803 16.1792 53.7325 16.4364 53.6774 16.6978C53.6587 16.7719 53.62 16.8379 53.5663 16.8872L52.7438 17.4982C52.7163 17.5215 52.6937 17.551 52.6774 17.5848C52.6611 17.6185 52.6516 17.6556 52.6493 17.6937V18.8301C52.6466 18.8447 52.648 18.8599 52.6533 18.8737C52.6586 18.8874 52.6676 18.899 52.679 18.907C52.6905 18.915 52.7039 18.9189 52.7175 18.9183C52.731 18.9176 52.7441 18.9125 52.7549 18.9034L53.5552 18.5063C53.5683 18.5006 53.5823 18.498 53.5964 18.4987C53.6104 18.4993 53.6242 18.5033 53.6368 18.5102C53.6494 18.5171 53.6605 18.5269 53.6694 18.5388C53.6783 18.5508 53.6849 18.5647 53.6886 18.5796C53.7308 18.7319 53.7906 18.8777 53.8664 19.0134C53.8815 19.0466 53.8894 19.0832 53.8894 19.1203C53.8894 19.1575 53.8815 19.1941 53.8664 19.2273L53.3107 20.4064C53.298 20.4376 53.2961 20.4728 53.3053 20.5054C53.3145 20.538 53.3342 20.5658 53.3607 20.5836L53.9164 20.9502C53.9427 20.9649 53.9729 20.9687 54.0015 20.9608C54.0301 20.9529 54.0551 20.934 54.072 20.9074L54.7389 19.8077C54.7587 19.7782 54.7847 19.7544 54.8147 19.7385C54.8447 19.7225 54.8778 19.7148 54.9112 19.716C55.0569 19.7173 55.2022 19.7009 55.3446 19.6672C55.3582 19.6625 55.3726 19.6613 55.3867 19.6636C55.4007 19.6659 55.4141 19.6717 55.4259 19.6805C55.4376 19.6893 55.4474 19.701 55.4545 19.7145C55.4616 19.7281 55.4659 19.7432 55.4669 19.7588L55.5558 20.718C55.5558 20.7852 55.6058 20.8158 55.6614 20.7791L56.5617 20.2109C56.5901 20.1889 56.6141 20.1607 56.6322 20.1282C56.6504 20.0956 56.6623 20.0593 56.6673 20.0215L56.7562 18.9218C56.7671 18.8451 56.8003 18.7744 56.8507 18.7201C57.031 18.5305 57.1982 18.3263 57.3508 18.1092C57.3722 18.0818 57.4006 18.0619 57.4322 18.0521C57.4638 18.0423 57.4974 18.0431 57.5287 18.0542L58.0844 18.2741C58.1142 18.2845 58.1464 18.2835 58.1756 18.2713C58.2048 18.2591 58.2295 18.2364 58.2456 18.2069L58.9069 16.9483C58.921 16.9171 58.9254 16.8816 58.9193 16.8474C58.9133 16.8132 58.8972 16.7821 58.8735 16.7589L58.4123 16.3251C58.3894 16.3 58.3732 16.2686 58.3654 16.2341C58.3575 16.1997 58.3584 16.1636 58.3678 16.1296C58.4534 15.8783 58.524 15.6212 58.579 15.3598C58.5947 15.2843 58.634 15.2172 58.6901 15.1704L59.5126 14.5594C59.5396 14.5355 59.5619 14.5059 59.5781 14.4723C59.5943 14.4387 59.6042 14.4018 59.6071 14.3639ZM56.0893 17.9686C55.2502 18.5063 54.5722 18.0725 54.5722 17.0094C54.5982 16.429 54.7493 15.8638 55.0131 15.3603C55.2769 14.8567 55.6458 14.4294 56.0893 14.1134C56.9285 13.5818 57.6065 14.0156 57.6065 15.0787C57.5796 15.658 57.428 16.2221 57.1643 16.7245C56.9006 17.2269 56.5321 17.6533 56.0893 17.9686Z" fill="#37474F"/>
<path d="M32.515 42.5299C39.3394 38.1981 44.8689 41.7112 44.8689 50.3749C44.8689 59.0385 39.3394 69.5656 32.515 73.8975C25.6907 78.2293 20.1611 74.7162 20.1611 66.0586C20.1611 57.4011 25.6907 46.8618 32.515 42.5299Z" fill="#2444B2"/>
<path d="M32.4318 49.3483C34.6547 47.9431 36.4387 49.0795 36.4387 51.89C36.3625 53.4176 35.96 54.904 35.2639 56.2288C34.5677 57.5535 33.5975 58.6793 32.4318 59.515C30.2089 60.9202 28.4194 59.7838 28.4194 56.9733C28.4958 55.445 28.8989 53.958 29.5961 52.6332C30.2932 51.3083 31.2648 50.1829 32.4318 49.3483Z" fill="white"/>
<path d="M40.3399 64.3296C40.3399 59.7167 37.389 57.841 33.7545 60.1505L31.4482 61.5924C27.8137 63.9019 24.8628 69.5351 24.8628 74.1358V75.4005C25.549 75.6416 26.2653 75.7632 26.9857 75.761C28.9354 75.6881 30.8339 75.0562 32.493 73.928C35.6673 71.7844 38.3518 68.8686 40.3399 65.4049V64.3296Z" fill="white"/>
<path d="M21.3671 86.7828L43.6742 72.6265C44.3355 72.2049 44.8746 72.5043 44.8746 73.2986C44.8445 73.7419 44.7203 74.1714 44.5118 74.5523C44.3033 74.9333 44.0164 75.2551 43.6742 75.492L21.3727 89.6483C20.7058 90.076 20.1667 89.7705 20.1667 88.9823C20.1955 88.5378 20.3192 88.107 20.5277 87.7248C20.7363 87.3426 21.0239 87.0199 21.3671 86.7828Z" fill="white"/>
<path d="M18.972 96.9129L46.0584 79.6773C46.7253 79.2557 47.2643 79.5551 47.2643 80.3494C47.2341 80.7934 47.1092 81.2234 46.8997 81.6044C46.6902 81.9855 46.402 82.307 46.0584 82.5428L18.972 99.7784C18.3052 100.2 17.7661 99.9006 17.7661 99.1063C17.7963 98.6623 17.9212 98.2323 18.1307 97.8513C18.3403 97.4702 18.6285 97.1487 18.972 96.9129Z" fill="black"/>
<path d="M46.7808 93.5708L54.3665 88.7563C54.7667 88.5058 55.089 88.6219 55.089 89.019C55.0589 89.2625 54.9781 89.4951 54.8528 89.6986C54.7274 89.9021 54.561 90.071 54.3665 90.1921L46.7808 95.0066C46.3862 95.2571 46.0583 95.141 46.0583 94.75C46.0888 94.5058 46.1698 94.2726 46.295 94.0681C46.4203 93.8637 46.5864 93.6936 46.7808 93.5708Z" fill="#37474F"/>
<path d="M8.88544 114.766L20.0279 107.697C20.6892 107.275 21.2282 107.617 21.2282 108.46V116.867C21.2053 117.326 21.0847 117.772 20.8762 118.17C20.6677 118.568 20.3772 118.907 20.0279 119.159L8.88544 126.228C8.22412 126.649 7.68506 126.307 7.68506 125.464V117.057C7.70799 116.598 7.82857 116.152 8.03707 115.754C8.24557 115.356 8.53616 115.017 8.88544 114.766Z" fill="white"/>
<path d="M10.6636 115.939L18.2494 111.124C18.6495 110.874 18.9718 110.99 18.9718 111.381C18.9425 111.625 18.8621 111.859 18.7367 112.064C18.6114 112.268 18.4445 112.438 18.2494 112.56L10.6636 117.375C10.2635 117.625 9.94116 117.509 9.94116 117.118C9.97041 116.873 10.0509 116.64 10.1763 116.435C10.3016 116.23 10.4684 116.06 10.6636 115.939Z" fill="#FAFAFA"/>
<path d="M9.94116 120.179V122.623C9.94116 123.13 10.2635 123.332 10.6636 123.081L18.2494 118.267C18.4596 118.116 18.6347 117.913 18.7602 117.674C18.8857 117.435 18.9582 117.167 18.9718 116.892V114.448C18.9718 113.941 18.6495 113.739 18.2494 113.99L10.6636 118.78C10.451 118.933 10.2746 119.14 10.149 119.384C10.0234 119.627 9.95217 119.9 9.94116 120.179Z" fill="#FAFAFA"/>
<path d="M26.9467 103.304L38.0613 96.2347C38.7282 95.8131 39.2673 96.1553 39.2673 96.9984V105.405C39.2446 105.865 39.1236 106.312 38.914 106.71C38.7044 107.108 38.4123 107.446 38.0613 107.697L26.9467 114.766C26.2798 115.187 25.7463 114.845 25.7463 114.002V105.595C25.768 105.136 25.888 104.689 26.0966 104.291C26.3052 103.893 26.5965 103.555 26.9467 103.304Z" fill="white"/>
<path d="M28.7251 104.477L36.3109 99.6623C36.7054 99.4118 37.0278 99.5279 37.0278 99.9189C36.9983 100.163 36.9184 100.396 36.7941 100.6C36.6698 100.805 36.5045 100.975 36.3109 101.098L28.7251 105.913C28.325 106.163 28.0027 106.047 28.0027 105.65C28.0327 105.406 28.1136 105.174 28.2389 104.97C28.3642 104.767 28.5307 104.598 28.7251 104.477Z" fill="#FAFAFA"/>
<path d="M28.0027 108.717V111.161C28.0027 111.668 28.325 111.87 28.7251 111.619L36.3109 106.805C36.5195 106.653 36.693 106.449 36.8175 106.211C36.9419 105.972 37.014 105.705 37.0278 105.43V102.986C37.0278 102.479 36.6999 102.277 36.3053 102.528L28.7196 107.342C28.5103 107.494 28.3364 107.697 28.2118 107.936C28.0873 108.174 28.0156 108.442 28.0027 108.717Z" fill="#FAFAFA"/>
<path d="M45.0079 91.8418L56.1226 84.7667C56.7839 84.3451 57.3229 84.6872 57.3229 85.5304V93.9435C57.3 94.4021 57.1794 94.8483 56.9709 95.2463C56.7624 95.6442 56.4718 95.9828 56.1226 96.2347L45.0079 103.304C44.3411 103.725 43.802 103.383 43.802 102.54V94.1329C43.8247 93.6736 43.9457 93.2267 44.1553 92.8285C44.3648 92.4304 44.657 92.0923 45.0079 91.8418Z" fill="white"/>
<path d="M46.7808 93.0149L54.3665 88.231C54.7667 87.9744 55.089 88.0905 55.089 88.4876C55.0602 88.7316 54.9798 88.9647 54.8544 89.1684C54.7289 89.3721 54.5619 89.5407 54.3665 89.6607L46.7808 94.4752C46.3862 94.7318 46.0583 94.6157 46.0583 94.2186C46.0843 93.9696 46.1632 93.731 46.2887 93.5218C46.4143 93.3127 46.5828 93.1391 46.7808 93.0149Z" fill="#FAFAFA"/>
<path d="M46.0583 97.2551V99.699C46.0583 100.2 46.3862 100.408 46.7808 100.157L54.3665 95.3367C54.5771 95.1865 54.7524 94.9837 54.878 94.7447C55.0035 94.5058 55.0759 94.2375 55.089 93.962V91.5181C55.089 91.011 54.7667 90.8032 54.3665 91.0598L46.7808 95.8743C46.5701 96.0258 46.3948 96.2298 46.2693 96.4697C46.1438 96.7096 46.0715 96.9787 46.0583 97.2551Z" fill="#FAFAFA"/>
<path d="M10.0914 134.054L54.9389 105.589C56.2727 104.746 57.3452 105.345 57.3452 106.927C57.2872 107.816 57.0389 108.677 56.6208 109.44C56.2026 110.204 55.6263 110.848 54.9389 111.32L10.0914 139.785C8.76319 140.628 7.68506 140.03 7.68506 138.447C7.74444 137.559 7.99321 136.698 8.41125 135.935C8.82929 135.172 9.40486 134.528 10.0914 134.054Z" fill="#292222"/>
<path d="M10.0914 145.522L54.9389 117.057C56.2727 116.214 57.3452 116.813 57.3452 118.395C57.2872 119.284 57.0389 120.145 56.6208 120.908C56.2026 121.672 55.6263 122.316 54.9389 122.788L10.0914 151.259C8.76319 152.103 7.68506 151.504 7.68506 149.915C7.74444 149.027 7.99321 148.166 8.41125 147.403C8.82929 146.64 9.40486 145.996 10.0914 145.522Z" fill="#292222"/>
<path d="M24.6903 150.587L40.3397 140.653C41.0066 140.231 41.5456 140.573 41.5456 141.416V146.958C41.523 147.417 41.4019 147.864 41.1923 148.262C40.9828 148.661 40.6906 148.999 40.3397 149.249L24.6903 159.184C24.0234 159.605 23.4844 159.263 23.4844 158.42V152.878C23.5071 152.419 23.6281 151.972 23.8377 151.574C24.0472 151.176 24.3394 150.838 24.6903 150.587Z" fill="white"/>
<path d="M11.0695 134.904C10.744 135.141 10.4738 135.46 10.2808 135.833C10.0877 136.207 9.97715 136.625 9.95801 137.054C9.95801 137.842 10.4637 138.166 11.0695 137.769C11.395 137.531 11.6651 137.213 11.8582 136.839C12.0512 136.466 12.1618 136.047 12.1809 135.618C12.1976 134.83 11.6919 134.506 11.0695 134.904Z" fill="#FAFAFA"/>
<path d="M14.6483 132.631C14.3222 132.868 14.0516 133.186 13.8585 133.56C13.6653 133.933 13.5551 134.352 13.5369 134.781C13.5369 135.569 14.037 135.893 14.6483 135.496C14.9738 135.258 15.244 134.94 15.4371 134.566C15.6301 134.193 15.7407 133.775 15.7598 133.345C15.7765 132.557 15.2707 132.221 14.6483 132.631Z" fill="#FAFAFA"/>
<path d="M18.2216 130.388C17.8961 130.626 17.6259 130.945 17.4328 131.318C17.2398 131.692 17.1292 132.11 17.1101 132.539C17.1101 133.327 17.6158 133.651 18.2216 133.254C18.5471 133.016 18.8172 132.698 19.0103 132.324C19.2033 131.951 19.3139 131.532 19.333 131.103C19.3497 130.285 18.844 129.961 18.2216 130.388Z" fill="#FAFAFA"/>
<path d="M21.8007 128.085C21.4749 128.322 21.2044 128.641 21.0114 129.014C20.8183 129.388 20.7079 129.806 20.6892 130.236C20.6892 131.024 21.1949 131.348 21.8007 130.95C22.1262 130.713 22.3963 130.394 22.5894 130.021C22.7824 129.647 22.893 129.229 22.9121 128.8C22.9288 128.012 22.4231 127.688 21.8007 128.085Z" fill="#FAFAFA"/>
<path d="M25.3739 125.812C25.0484 126.05 24.7782 126.368 24.5852 126.742C24.3921 127.116 24.2816 127.534 24.2625 127.963C24.2625 128.751 24.7682 129.075 25.3739 128.678C25.6994 128.44 25.9696 128.121 26.1626 127.748C26.3557 127.374 26.4662 126.956 26.4854 126.527C26.502 125.739 25.9963 125.415 25.3739 125.812Z" fill="#FAFAFA"/>
<path d="M28.9472 123.539C28.6217 123.777 28.3515 124.095 28.1584 124.469C27.9654 124.843 27.8548 125.261 27.8357 125.69C27.8357 126.478 28.3414 126.802 28.9472 126.405C29.2733 126.168 29.5439 125.849 29.737 125.476C29.9302 125.102 30.0404 124.683 30.0586 124.254C30.0753 123.466 29.5751 123.142 28.9472 123.539Z" fill="#FAFAFA"/>
<path d="M32.5263 121.267C32.2008 121.504 31.9306 121.823 31.7375 122.196C31.5445 122.57 31.4339 122.988 31.4148 123.417C31.4148 124.205 31.9205 124.529 32.5263 124.132C32.8518 123.894 33.1219 123.576 33.315 123.202C33.508 122.829 33.6186 122.411 33.6377 121.981C33.6711 121.224 33.1487 120.869 32.5263 121.267Z" fill="#FAFAFA"/>
<path d="M11.0695 146.377C10.7446 146.616 10.4749 146.935 10.2819 147.308C10.0889 147.681 9.97801 148.099 9.95801 148.528C9.95801 149.322 10.4637 149.64 11.0695 149.243C11.3949 149.007 11.665 148.689 11.8581 148.317C12.0512 147.944 12.1618 147.527 12.1809 147.098C12.1976 146.304 11.6919 145.986 11.0695 146.377Z" fill="#FAFAFA"/>
<path d="M14.6483 144.105C14.3225 144.342 14.0521 144.661 13.859 145.034C13.6659 145.408 13.5556 145.826 13.5369 146.255C13.5369 147.05 14.037 147.367 14.6483 146.97C14.9737 146.734 15.2439 146.416 15.437 146.044C15.6301 145.671 15.7407 145.254 15.7598 144.826C15.7765 144.031 15.2707 143.714 14.6483 144.105Z" fill="#FAFAFA"/>
<path d="M18.2216 141.832C17.8967 142.07 17.627 142.389 17.434 142.762C17.241 143.136 17.1301 143.554 17.1101 143.982C17.1101 144.777 17.6158 145.094 18.2216 144.697C18.547 144.461 18.8171 144.144 19.0102 143.771C19.2033 143.398 19.3139 142.981 19.333 142.553C19.3497 141.759 18.844 141.435 18.2216 141.832Z" fill="#FAFAFA"/>
<path d="M21.8007 139.553C21.4752 139.791 21.205 140.109 21.0119 140.483C20.8189 140.856 20.7083 141.274 20.6892 141.704C20.6892 142.498 21.1949 142.816 21.8007 142.418C22.1261 142.182 22.3962 141.865 22.5893 141.492C22.7824 141.119 22.893 140.702 22.9121 140.274C22.9288 139.486 22.4231 139.162 21.8007 139.553Z" fill="#FAFAFA"/>
<path d="M25.3739 137.286C25.0484 137.524 24.7782 137.842 24.5852 138.216C24.3921 138.59 24.2816 139.008 24.2625 139.437C24.2625 140.231 24.7682 140.549 25.3739 140.152C25.6993 139.915 25.9695 139.598 26.1626 139.225C26.3557 138.853 26.4663 138.435 26.4854 138.007C26.502 137.213 25.9963 136.889 25.3739 137.286Z" fill="#FAFAFA"/>
<path d="M28.9472 135.013C28.6217 135.251 28.3515 135.57 28.1584 135.943C27.9654 136.317 27.8548 136.735 27.8357 137.164C27.8357 137.958 28.3414 138.276 28.9472 137.879C29.2739 137.643 29.545 137.324 29.7382 136.951C29.9314 136.577 30.0412 136.158 30.0586 135.728C30.0753 134.94 29.5751 134.616 28.9472 135.013Z" fill="#FAFAFA"/>
<path d="M32.5263 132.741C32.2008 132.978 31.9306 133.297 31.7375 133.67C31.5445 134.044 31.4339 134.462 31.4148 134.891C31.4148 135.686 31.9205 136.003 32.5263 135.606C32.8521 135.369 33.1225 135.05 33.3156 134.677C33.5087 134.303 33.619 133.885 33.6377 133.456C33.6711 132.667 33.1487 132.344 32.5263 132.741Z" fill="#FAFAFA"/>
</svg>
