<svg width="65" height="189" viewBox="0 0 65 189" fill="none" xmlns="http://www.w3.org/2000/svg">
<path d="M0.910645 42.6583V185.566C0.910645 187.252 1.98876 187.936 3.31696 187.093L61.7132 150.025C62.4134 149.523 62.9962 148.846 63.4142 148.05C63.8323 147.254 64.0739 146.361 64.1195 145.443V2.53552C64.1195 0.849222 63.0414 0.164928 61.7132 1.00808L3.31696 38.076C2.61613 38.5777 2.03292 39.2542 1.61478 40.0504C1.19664 40.8467 0.955388 41.7402 0.910645 42.6583Z" fill="#FAFAFA" stroke="#E0E0E0" stroke-width="1.16981" stroke-miterlimit="10"/>
<path d="M4.29492 45.3161C4.31369 45.0898 4.38023 44.8714 4.48924 44.6784C4.59826 44.4854 4.74674 44.3229 4.92289 44.2041L11.5917 39.9822C11.9362 39.7623 12.2141 39.9089 12.2141 40.3061C12.1964 40.5319 12.1309 40.7501 12.0228 40.9432C11.9147 41.1362 11.7671 41.2989 11.5917 41.418L4.92289 45.6399C4.57834 45.8598 4.29492 45.7132 4.29492 45.3161Z" fill="#455A64"/>
<path d="M4.29492 48.1632C4.31326 47.9368 4.37962 47.7182 4.48868 47.5251C4.59774 47.332 4.74645 47.1697 4.92289 47.0512L11.5917 42.8294C11.9362 42.6094 12.2141 42.756 12.2141 43.1471C12.1972 43.374 12.1321 43.5934 12.024 43.7876C11.9159 43.9818 11.7678 44.1454 11.5917 44.2651L4.92289 48.4809C4.57834 48.7008 4.29492 48.5603 4.29492 48.1632Z" fill="#455A64"/>
<path d="M4.29492 51.0104C4.31326 50.784 4.37962 50.5655 4.48868 50.3723C4.59774 50.1792 4.74645 50.0169 4.92289 49.8984L11.5917 45.6766C11.9362 45.4566 12.2141 45.5971 12.2141 45.9943C12.1972 46.2204 12.1321 46.4389 12.0239 46.6322C11.9158 46.8254 11.7677 46.9878 11.5917 47.1063L4.92289 51.3281C4.57834 51.5725 4.29492 51.4075 4.29492 51.0104Z" fill="#455A64"/>
<path d="M59.6071 14.364V13.2215C59.6076 13.2076 59.6047 13.1938 59.5988 13.1815C59.5929 13.1692 59.5842 13.1589 59.5735 13.1514C59.5628 13.144 59.5505 13.1398 59.5379 13.1392C59.5253 13.1387 59.5127 13.1417 59.5015 13.1482L58.7013 13.5453C58.6887 13.5521 58.6748 13.5558 58.6608 13.556C58.6467 13.5563 58.6328 13.5531 58.62 13.5466C58.6072 13.5402 58.5959 13.5307 58.5869 13.5188C58.5779 13.507 58.5714 13.4931 58.5679 13.4781C58.5256 13.3258 58.4658 13.18 58.3901 13.0443C58.3749 13.0111 58.367 12.9745 58.367 12.9374C58.367 12.9002 58.3749 12.8636 58.3901 12.8304L58.9458 11.6452C58.9595 11.6151 58.9619 11.5804 58.9526 11.5484C58.9432 11.5164 58.9228 11.4897 58.8958 11.4741L58.34 11.1075C58.3138 11.0928 58.2835 11.0891 58.255 11.0969C58.2264 11.1048 58.2013 11.1237 58.1844 11.1503L57.5176 12.25C57.4977 12.2795 57.4717 12.3033 57.4417 12.3192C57.4117 12.3352 57.3786 12.3429 57.3453 12.3417C57.1996 12.3404 57.0542 12.3568 56.9118 12.3906C56.8982 12.3952 56.8839 12.3964 56.8698 12.3941C56.8557 12.3918 56.8423 12.386 56.8306 12.3772C56.8188 12.3684 56.809 12.3567 56.8019 12.3432C56.7948 12.3296 56.7906 12.3145 56.7895 12.2989L56.7006 11.3397C56.7006 11.2725 56.6451 11.2419 56.595 11.2786L55.6948 11.8468C55.6663 11.8673 55.6422 11.8943 55.6239 11.9259C55.6057 11.9575 55.5939 11.993 55.5892 12.0301L55.5002 13.1298C55.4883 13.2079 55.4554 13.2802 55.4058 13.3376C55.2254 13.5272 55.0582 13.7314 54.9056 13.9485C54.8842 13.976 54.8559 13.9958 54.8243 14.0056C54.7926 14.0154 54.7591 14.0147 54.7278 14.0035L54.1721 13.7836C54.1422 13.7732 54.1101 13.7742 54.0808 13.7864C54.0516 13.7986 54.0269 13.8213 54.0109 13.8508L53.3496 15.1094C53.3361 15.1393 53.3316 15.1731 53.3365 15.206C53.3415 15.2389 53.3558 15.2692 53.3773 15.2927L53.8442 15.7326C53.867 15.7577 53.8832 15.7891 53.8911 15.8236C53.8989 15.858 53.8981 15.8941 53.8886 15.9281C53.803 16.1794 53.7325 16.4365 53.6774 16.6979C53.6587 16.772 53.62 16.8381 53.5663 16.8873L52.7438 17.4983C52.7163 17.5217 52.6937 17.5512 52.6774 17.5849C52.6611 17.6186 52.6516 17.6557 52.6493 17.6938V18.8302C52.6466 18.8449 52.648 18.86 52.6533 18.8738C52.6586 18.8875 52.6676 18.8992 52.679 18.9071C52.6905 18.9151 52.7039 18.919 52.7175 18.9184C52.731 18.9177 52.7441 18.9126 52.7549 18.9036L53.5552 18.5064C53.5683 18.5007 53.5823 18.4981 53.5964 18.4988C53.6104 18.4995 53.6242 18.5034 53.6368 18.5103C53.6494 18.5172 53.6605 18.527 53.6694 18.5389C53.6783 18.5509 53.6849 18.5648 53.6886 18.5797C53.7308 18.7321 53.7906 18.8778 53.8664 19.0135C53.8815 19.0467 53.8894 19.0833 53.8894 19.1205C53.8894 19.1576 53.8815 19.1942 53.8664 19.2274L53.3107 20.4066C53.298 20.4377 53.2961 20.4729 53.3053 20.5055C53.3145 20.5381 53.3342 20.5659 53.3607 20.5837L53.9164 20.9503C53.9427 20.965 53.9729 20.9688 54.0015 20.9609C54.0301 20.9531 54.0551 20.9341 54.072 20.9076L54.7389 19.8078C54.7587 19.7783 54.7847 19.7546 54.8147 19.7386C54.8447 19.7226 54.8778 19.7149 54.9112 19.7162C55.0569 19.7175 55.2022 19.7011 55.3446 19.6673C55.3582 19.6626 55.3726 19.6614 55.3867 19.6637C55.4007 19.6661 55.4141 19.6718 55.4259 19.6806C55.4376 19.6895 55.4474 19.7011 55.4545 19.7146C55.4616 19.7282 55.4659 19.7433 55.4669 19.7589L55.5558 20.7182C55.5558 20.7854 55.6058 20.8159 55.6614 20.7793L56.5617 20.211C56.5901 20.189 56.6141 20.1609 56.6322 20.1283C56.6504 20.0957 56.6623 20.0594 56.6673 20.0216L56.7562 18.9219C56.7671 18.8453 56.8003 18.7745 56.8507 18.7203C57.031 18.5306 57.1982 18.3264 57.3508 18.1093C57.3722 18.0819 57.4006 18.062 57.4322 18.0522C57.4638 18.0425 57.4974 18.0432 57.5287 18.0543L58.0844 18.2743C58.1142 18.2846 58.1464 18.2836 58.1756 18.2714C58.2048 18.2592 58.2295 18.2366 58.2456 18.207L58.9069 16.9484C58.921 16.9172 58.9254 16.8818 58.9193 16.8475C58.9133 16.8133 58.8972 16.7822 58.8735 16.759L58.4123 16.3252C58.3894 16.3002 58.3732 16.2687 58.3654 16.2343C58.3575 16.1998 58.3584 16.1637 58.3678 16.1297C58.4534 15.8785 58.524 15.6213 58.579 15.3599C58.5947 15.2844 58.634 15.2173 58.6901 15.1705L59.5126 14.5595C59.5396 14.5357 59.5619 14.506 59.5781 14.4724C59.5943 14.4388 59.6042 14.4019 59.6071 14.364ZM56.0893 17.9688C55.2502 18.5064 54.5722 18.0726 54.5722 17.0095C54.5982 16.4292 54.7493 15.8639 55.0131 15.3604C55.2769 14.8569 55.6458 14.4295 56.0893 14.1135C56.9285 13.582 57.6065 14.0157 57.6065 15.0788C57.5796 15.6582 57.428 16.2222 57.1643 16.7246C56.9006 17.227 56.5321 17.6534 56.0893 17.9688Z" fill="#37474F"/>
<path d="M32.515 42.5301C39.3394 38.1982 44.8689 41.7113 44.8689 50.375C44.8689 59.0386 39.3394 69.5658 32.515 73.8976C25.6907 78.2294 20.1611 74.7163 20.1611 66.0588C20.1611 57.4012 25.6907 46.8619 32.515 42.5301Z" fill="#455A64"/>
<path d="M32.4318 49.3486C34.6547 47.9433 36.4387 49.0797 36.4387 51.8902C36.3625 53.4179 35.96 54.9043 35.2639 56.229C34.5677 57.5538 33.5975 58.6796 32.4318 59.5152C30.2089 60.9205 28.4194 59.784 28.4194 56.9735C28.4958 55.4452 28.8989 53.9583 29.5961 52.6334C30.2932 51.3086 31.2648 50.1831 32.4318 49.3486Z" fill="white"/>
<path d="M40.3399 64.3297C40.3399 59.7169 37.389 57.8411 33.7545 60.1506L31.4482 61.5925C27.8137 63.902 24.8628 69.5352 24.8628 74.1359V75.4006C25.549 75.6417 26.2653 75.7634 26.9857 75.7611C28.9354 75.6882 30.8339 75.0564 32.493 73.9282C35.6673 71.7845 38.3518 68.8687 40.3399 65.405V64.3297Z" fill="white"/>
<path d="M21.3671 86.7831L43.6742 72.6268C44.3355 72.2052 44.8746 72.5046 44.8746 73.2988C44.8445 73.7422 44.7203 74.1716 44.5118 74.5526C44.3033 74.9335 44.0164 75.2554 43.6742 75.4922L21.3727 89.6486C20.7058 90.0762 20.1667 89.7707 20.1667 88.9826C20.1955 88.538 20.3192 88.1072 20.5277 87.725C20.7363 87.3429 21.0239 87.0202 21.3671 86.7831Z" fill="white"/>
<path d="M18.972 96.9131L46.0584 79.6774C46.7253 79.2558 47.2643 79.5552 47.2643 80.3495C47.2341 80.7935 47.1092 81.2235 46.8997 81.6046C46.6902 81.9856 46.402 82.3071 46.0584 82.5429L18.972 99.7785C18.3052 100.2 17.7661 99.9007 17.7661 99.1065C17.7963 98.6624 17.9212 98.2325 18.1307 97.8514C18.3403 97.4703 18.6285 97.1489 18.972 96.9131Z" fill="#455A64"/>
<path d="M46.7808 93.571L54.3665 88.7565C54.7667 88.506 55.089 88.6221 55.089 89.0192C55.0589 89.2628 54.9781 89.4953 54.8528 89.6988C54.7274 89.9023 54.561 90.0712 54.3665 90.1923L46.7808 95.0068C46.3862 95.2573 46.0583 95.1412 46.0583 94.7502C46.0888 94.506 46.1698 94.2728 46.295 94.0684C46.4203 93.864 46.5864 93.6938 46.7808 93.571Z" fill="#37474F"/>
<path d="M8.88544 114.766L20.0279 107.697C20.6892 107.275 21.2282 107.617 21.2282 108.461V116.868C21.2053 117.326 21.0847 117.772 20.8762 118.17C20.6677 118.568 20.3772 118.907 20.0279 119.159L8.88544 126.228C8.22412 126.649 7.68506 126.307 7.68506 125.464V117.057C7.70799 116.598 7.82857 116.152 8.03707 115.754C8.24557 115.356 8.53616 115.018 8.88544 114.766Z" fill="white"/>
<path d="M10.6636 115.939L18.2494 111.124C18.6495 110.874 18.9718 110.99 18.9718 111.381C18.9425 111.626 18.8621 111.859 18.7367 112.064C18.6114 112.269 18.4445 112.438 18.2494 112.56L10.6636 117.375C10.2635 117.625 9.94116 117.509 9.94116 117.118C9.97041 116.873 10.0509 116.64 10.1763 116.435C10.3016 116.23 10.4684 116.061 10.6636 115.939Z" fill="#FAFAFA"/>
<path d="M9.94116 120.179V122.623C9.94116 123.13 10.2635 123.332 10.6636 123.081L18.2494 118.267C18.4596 118.116 18.6347 117.913 18.7602 117.674C18.8857 117.436 18.9582 117.167 18.9718 116.892V114.448C18.9718 113.941 18.6495 113.739 18.2494 113.99L10.6636 118.78C10.451 118.934 10.2746 119.141 10.149 119.384C10.0234 119.627 9.95217 119.9 9.94116 120.179Z" fill="#FAFAFA"/>
<path d="M26.9467 103.304L38.0613 96.2349C38.7282 95.8134 39.2673 96.1555 39.2673 96.9987V105.406C39.2446 105.865 39.1236 106.312 38.914 106.71C38.7044 107.108 38.4123 107.446 38.0613 107.697L26.9467 114.766C26.2798 115.187 25.7463 114.845 25.7463 114.002V105.595C25.768 105.136 25.888 104.689 26.0966 104.291C26.3052 103.893 26.5965 103.555 26.9467 103.304Z" fill="white"/>
<path d="M28.7251 104.477L36.3109 99.6624C36.7054 99.4119 37.0278 99.528 37.0278 99.9191C36.9983 100.163 36.9184 100.396 36.7941 100.6C36.6698 100.805 36.5045 100.975 36.3109 101.098L28.7251 105.913C28.325 106.163 28.0027 106.047 28.0027 105.65C28.0327 105.406 28.1136 105.174 28.2389 104.97C28.3642 104.767 28.5307 104.598 28.7251 104.477Z" fill="#FAFAFA"/>
<path d="M28.0027 108.717V111.161C28.0027 111.668 28.325 111.87 28.7251 111.619L36.3109 106.805C36.5195 106.653 36.693 106.45 36.8175 106.211C36.9419 105.972 37.014 105.705 37.0278 105.43V102.986C37.0278 102.479 36.6999 102.277 36.3053 102.528L28.7196 107.342C28.5103 107.494 28.3364 107.697 28.2118 107.936C28.0873 108.175 28.0156 108.442 28.0027 108.717Z" fill="#FAFAFA"/>
<path d="M45.0079 91.8419L56.1226 84.7668C56.7839 84.3452 57.3229 84.6874 57.3229 85.5305V93.9437C57.3 94.4022 57.1794 94.8485 56.9709 95.2464C56.7624 95.6444 56.4718 95.9829 56.1226 96.2348L45.0079 103.304C44.3411 103.725 43.802 103.383 43.802 102.54V94.1331C43.8247 93.6737 43.9457 93.2268 44.1553 92.8286C44.3648 92.4305 44.657 92.0924 45.0079 91.8419Z" fill="white"/>
<path d="M46.7808 93.0151L54.3665 88.2311C54.7667 87.9745 55.089 88.0906 55.089 88.4877C55.0602 88.7317 54.9798 88.9648 54.8544 89.1685C54.7289 89.3722 54.5619 89.5408 54.3665 89.6608L46.7808 94.4753C46.3862 94.7319 46.0583 94.6158 46.0583 94.2187C46.0843 93.9698 46.1632 93.7311 46.2887 93.522C46.4143 93.3128 46.5828 93.1392 46.7808 93.0151Z" fill="#FAFAFA"/>
<path d="M46.0583 97.2553V99.6992C46.0583 100.2 46.3862 100.408 46.7808 100.157L54.3665 95.3368C54.5771 95.1866 54.7524 94.9838 54.878 94.7448C55.0035 94.5059 55.0759 94.2377 55.089 93.9621V91.5182C55.089 91.0111 54.7667 90.8033 54.3665 91.06L46.7808 95.8744C46.5701 96.0259 46.3948 96.2299 46.2693 96.4698C46.1438 96.7097 46.0715 96.9788 46.0583 97.2553Z" fill="#FAFAFA"/>
<path d="M10.0914 134.054L54.9389 105.589C56.2727 104.746 57.3452 105.345 57.3452 106.927C57.2872 107.816 57.0389 108.677 56.6208 109.44C56.2026 110.204 55.6263 110.848 54.9389 111.32L10.0914 139.785C8.76319 140.628 7.68506 140.03 7.68506 138.447C7.74444 137.559 7.99321 136.698 8.41125 135.935C8.82929 135.172 9.40486 134.528 10.0914 134.054Z" fill="#E0E0E0"/>
<path d="M10.0914 145.522L54.9389 117.057C56.2727 116.214 57.3452 116.813 57.3452 118.395C57.2872 119.284 57.0389 120.145 56.6208 120.908C56.2026 121.672 55.6263 122.316 54.9389 122.788L10.0914 151.259C8.76319 152.103 7.68506 151.504 7.68506 149.915C7.74444 149.027 7.99321 148.166 8.41125 147.403C8.82929 146.64 9.40486 145.996 10.0914 145.522Z" fill="#E0E0E0"/>
<path d="M24.6903 150.587L40.3397 140.653C41.0066 140.231 41.5456 140.573 41.5456 141.417V146.958C41.523 147.418 41.4019 147.864 41.1923 148.263C40.9828 148.661 40.6906 148.999 40.3397 149.249L24.6903 159.184C24.0234 159.605 23.4844 159.263 23.4844 158.42V152.879C23.5071 152.419 23.6281 151.972 23.8377 151.574C24.0472 151.176 24.3394 150.838 24.6903 150.587Z" fill="white"/>
<path d="M11.0695 134.904C10.744 135.141 10.4738 135.46 10.2808 135.833C10.0877 136.207 9.97715 136.625 9.95801 137.054C9.95801 137.842 10.4637 138.166 11.0695 137.769C11.395 137.531 11.6651 137.213 11.8582 136.839C12.0512 136.466 12.1618 136.047 12.1809 135.618C12.1976 134.83 11.6919 134.506 11.0695 134.904Z" fill="#FAFAFA"/>
<path d="M14.6483 132.631C14.3222 132.868 14.0516 133.186 13.8585 133.56C13.6653 133.934 13.5551 134.352 13.5369 134.781C13.5369 135.57 14.037 135.893 14.6483 135.496C14.9738 135.259 15.244 134.94 15.4371 134.566C15.6301 134.193 15.7407 133.775 15.7598 133.346C15.7765 132.557 15.2707 132.221 14.6483 132.631Z" fill="#FAFAFA"/>
<path d="M18.2216 130.388C17.8961 130.626 17.6259 130.945 17.4328 131.318C17.2398 131.692 17.1292 132.11 17.1101 132.539C17.1101 133.327 17.6158 133.651 18.2216 133.254C18.5471 133.016 18.8172 132.698 19.0103 132.324C19.2033 131.951 19.3139 131.532 19.333 131.103C19.3497 130.285 18.844 129.961 18.2216 130.388Z" fill="#FAFAFA"/>
<path d="M21.8007 128.085C21.4749 128.323 21.2044 128.641 21.0114 129.015C20.8183 129.388 20.7079 129.807 20.6892 130.236C20.6892 131.024 21.1949 131.348 21.8007 130.951C22.1262 130.713 22.3963 130.394 22.5894 130.021C22.7824 129.647 22.893 129.229 22.9121 128.8C22.9288 128.012 22.4231 127.688 21.8007 128.085Z" fill="#FAFAFA"/>
<path d="M25.3739 125.812C25.0484 126.05 24.7782 126.368 24.5852 126.742C24.3921 127.116 24.2816 127.534 24.2625 127.963C24.2625 128.751 24.7682 129.075 25.3739 128.678C25.6994 128.44 25.9696 128.121 26.1626 127.748C26.3557 127.374 26.4662 126.956 26.4854 126.527C26.502 125.739 25.9963 125.415 25.3739 125.812Z" fill="#FAFAFA"/>
<path d="M28.9472 123.54C28.6217 123.777 28.3515 124.096 28.1584 124.469C27.9654 124.843 27.8548 125.261 27.8357 125.69C27.8357 126.478 28.3414 126.802 28.9472 126.405C29.2733 126.168 29.5439 125.85 29.737 125.476C29.9302 125.102 30.0404 124.684 30.0586 124.254C30.0753 123.466 29.5751 123.142 28.9472 123.54Z" fill="#FAFAFA"/>
<path d="M32.5263 121.267C32.2008 121.504 31.9306 121.823 31.7375 122.196C31.5445 122.57 31.4339 122.988 31.4148 123.417C31.4148 124.205 31.9205 124.529 32.5263 124.132C32.8518 123.894 33.1219 123.576 33.315 123.202C33.508 122.829 33.6186 122.411 33.6377 121.981C33.6711 121.224 33.1487 120.869 32.5263 121.267Z" fill="#FAFAFA"/>
<path d="M11.0695 146.378C10.7446 146.616 10.4749 146.935 10.2819 147.308C10.0889 147.682 9.97801 148.099 9.95801 148.528C9.95801 149.323 10.4637 149.64 11.0695 149.243C11.3949 149.007 11.665 148.689 11.8581 148.317C12.0512 147.944 12.1618 147.527 12.1809 147.099C12.1976 146.304 11.6919 145.987 11.0695 146.378Z" fill="#FAFAFA"/>
<path d="M14.6483 144.105C14.3225 144.342 14.0521 144.661 13.859 145.034C13.6659 145.408 13.5556 145.826 13.5369 146.255C13.5369 147.05 14.037 147.367 14.6483 146.97C14.9737 146.734 15.2439 146.416 15.437 146.044C15.6301 145.671 15.7407 145.254 15.7598 144.826C15.7765 144.031 15.2707 143.714 14.6483 144.105Z" fill="#FAFAFA"/>
<path d="M18.2216 141.832C17.8967 142.071 17.627 142.389 17.434 142.763C17.241 143.136 17.1301 143.554 17.1101 143.983C17.1101 144.777 17.6158 145.095 18.2216 144.698C18.547 144.461 18.8171 144.144 19.0102 143.771C19.2033 143.399 19.3139 142.981 19.333 142.553C19.3497 141.759 18.844 141.435 18.2216 141.832Z" fill="#FAFAFA"/>
<path d="M21.8007 139.553C21.4752 139.791 21.205 140.109 21.0119 140.483C20.8189 140.856 20.7083 141.275 20.6892 141.704C20.6892 142.498 21.1949 142.816 21.8007 142.419C22.1261 142.182 22.3962 141.865 22.5893 141.492C22.7824 141.12 22.893 140.702 22.9121 140.274C22.9288 139.486 22.4231 139.162 21.8007 139.553Z" fill="#FAFAFA"/>
<path d="M25.3739 137.286C25.0484 137.524 24.7782 137.843 24.5852 138.216C24.3921 138.59 24.2816 139.008 24.2625 139.437C24.2625 140.231 24.7682 140.549 25.3739 140.152C25.6993 139.915 25.9695 139.598 26.1626 139.226C26.3557 138.853 26.4663 138.436 26.4854 138.007C26.502 137.213 25.9963 136.889 25.3739 137.286Z" fill="#FAFAFA"/>
<path d="M28.9472 135.014C28.6217 135.251 28.3515 135.57 28.1584 135.943C27.9654 136.317 27.8548 136.735 27.8357 137.164C27.8357 137.959 28.3414 138.276 28.9472 137.879C29.2739 137.643 29.545 137.325 29.7382 136.951C29.9314 136.577 30.0412 136.158 30.0586 135.728C30.0753 134.94 29.5751 134.616 28.9472 135.014Z" fill="#FAFAFA"/>
<path d="M32.5263 132.741C32.2008 132.978 31.9306 133.297 31.7375 133.67C31.5445 134.044 31.4339 134.462 31.4148 134.891C31.4148 135.686 31.9205 136.003 32.5263 135.606C32.8521 135.369 33.1225 135.05 33.3156 134.677C33.5087 134.303 33.619 133.885 33.6377 133.456C33.6711 132.667 33.1487 132.344 32.5263 132.741Z" fill="#FAFAFA"/>
</svg>
