<svg width="257" height="74" viewBox="0 0 257 74" fill="none" xmlns="http://www.w3.org/2000/svg">
<path d="M33.1642 53.0947C33.2309 47.2904 29.5408 35.2114 24.1447 27.6048C18.7485 19.9981 10.1791 14.371 4.0661 16.5889C-1.65794 18.6601 -1.12999 26.8838 5.73329 32.4254C12.5966 37.9669 22.9054 44.9443 25.8452 54.4205L32.0972 66.0291L33.1642 53.0947Z" fill="#36B45A"/>
<path opacity="0.1" d="M33.1642 53.0947C33.2309 47.2904 29.5408 35.2114 24.1447 27.6048C18.7485 19.9981 10.1791 14.371 4.0661 16.5889C-1.65794 18.6601 -1.12999 26.8838 5.73329 32.4254C12.5966 37.9669 22.9054 44.9443 25.8452 54.4205L32.0972 66.0291L33.1642 53.0947Z" fill="black"/>
<path d="M33.47 61.0435C33.3857 61.0354 33.3061 60.9969 33.2438 60.9339C33.1815 60.8709 33.1399 60.787 33.1255 60.6953C29.7911 40.8324 15.3976 24.5316 6.71156 20.8596C6.65907 20.8439 6.61017 20.8162 6.568 20.7784C6.52584 20.7406 6.49136 20.6936 6.46678 20.6402C6.4422 20.5868 6.42807 20.5284 6.42531 20.4687C6.42254 20.409 6.43121 20.3493 6.45073 20.2934C6.47026 20.2376 6.50022 20.1869 6.53868 20.1446C6.57714 20.1023 6.62324 20.0693 6.674 20.0479C6.72477 20.0264 6.77907 20.0168 6.8334 20.0198C6.88773 20.0228 6.94088 20.0383 6.98942 20.0653C15.8422 23.8106 30.5135 40.3803 33.8813 60.5425C33.8909 60.5971 33.8907 60.6532 33.8805 60.7077C33.8704 60.7622 33.8505 60.8139 33.8221 60.8599C33.7937 60.9059 33.7573 60.9453 33.715 60.9757C33.6727 61.0062 33.6253 61.0272 33.5756 61.0374L33.47 61.0435Z" fill="white"/>
<path d="M30.6412 73.6908C29.8298 70.4159 26.262 64.9844 20.449 60.457C14.0137 55.4531 5.83331 53.0825 3.98272 49.2273C1.75979 44.5961 5.33315 40.2948 11.9853 41.2846C18.6374 42.2744 30.241 52.441 31.9527 67.5077L30.6412 73.6908Z" fill="#36B45A"/>
<path d="M31.9695 70.2814C31.8953 70.2746 31.8244 70.2445 31.7653 70.1947C31.7062 70.1448 31.6613 70.0774 31.6361 70.0004C26.2955 52.948 14.5807 46.8321 9.13451 45.9829C9.03354 45.9675 8.94228 45.9086 8.88079 45.8193C8.8193 45.7299 8.79262 45.6173 8.80662 45.5063C8.82063 45.3953 8.87416 45.295 8.95545 45.2274C9.03674 45.1598 9.13913 45.1305 9.2401 45.1459C15.2642 46.0868 26.9179 52.3187 32.3696 69.7193C32.4019 69.8263 32.395 69.9429 32.3504 70.0444C32.3057 70.1459 32.227 70.2244 32.1307 70.2631C32.0786 70.2809 32.0238 70.2871 31.9695 70.2814Z" fill="white"/>
<path d="M230.21 36.5555C230.21 36.5555 230.949 24.336 237.507 15.2324C244.064 6.12888 243.664 2.40192 239.141 0.568995C234.617 -1.26393 224.136 9.70309 226.448 24.336C228.759 38.9689 230.21 36.5555 230.21 36.5555Z" fill="#36B45A"/>
<path opacity="0.1" d="M230.21 36.5555C230.21 36.5555 230.949 24.336 237.507 15.2324C244.064 6.12888 243.664 2.40192 239.141 0.568995C234.617 -1.26393 224.136 9.70309 226.448 24.336C228.759 38.9689 230.21 36.5555 230.21 36.5555Z" fill="black"/>
<path d="M228.204 29.5782C228.138 29.5785 228.075 29.5516 228.026 29.5029C227.978 29.4543 227.948 29.3874 227.942 29.3155C227.181 15.8374 235.834 4.7787 239.057 2.2737C239.084 2.25169 239.115 2.23594 239.148 2.22739C239.181 2.21884 239.215 2.21766 239.248 2.22394C239.281 2.23022 239.313 2.24382 239.341 2.26392C239.37 2.28402 239.394 2.3102 239.413 2.3409C239.452 2.40268 239.468 2.47894 239.456 2.55323C239.445 2.62752 239.407 2.69389 239.352 2.73804C236.173 5.18194 227.681 16.039 228.437 29.2789C228.44 29.353 228.417 29.4257 228.372 29.4815C228.328 29.5373 228.265 29.572 228.198 29.5782H228.204Z" fill="white"/>
<path d="M228.426 46.6732C231.379 47.7342 234.405 48.535 237.473 49.0683C242.553 49.9481 244.798 47.2781 244.798 47.2781C244.798 47.2781 242.797 42.042 239.913 40.5574C243.034 41.3281 246.014 42.6729 248.727 44.5348C248.727 44.5348 251.828 44.5898 253.062 39.3843C253.062 39.3843 251.228 36.25 245.059 34.5576C245.059 34.5576 248.81 33.5189 254.218 35.0341C254.623 35.2113 256.352 28.4845 256.874 25.3807C257.396 22.2769 256.263 22.3258 254.062 21.6599C251.861 20.9939 244.564 19.216 243.186 20.5418C241.808 21.8676 241.108 26.4255 241.108 26.4255C240.562 24.5596 240.491 22.565 240.902 20.6579C240.902 20.6579 238.924 19.8086 235.845 20.7923C233.333 21.5927 233.211 23.4745 233.322 25.6007C233.471 27.4476 233.845 29.2642 234.433 31.0017C234.433 31.0017 232.472 28.2401 232.411 22.2464C232.411 22.2464 227.265 25.0569 226.386 30.6779C225.875 33.7267 225.197 42.6652 228.426 46.6732Z" fill="#36B45A"/>
<path d="M229.393 45.5857C229.447 45.5855 229.5 45.5688 229.546 45.5375C229.592 45.5062 229.63 45.4616 229.654 45.4086C233.75 36.0423 248.994 25.1608 254.451 23.9938C254.488 23.9865 254.523 23.9712 254.555 23.9487C254.586 23.9262 254.614 23.8971 254.635 23.863C254.656 23.8289 254.671 23.7905 254.678 23.75C254.686 23.7095 254.686 23.6678 254.679 23.6272C254.663 23.5454 254.618 23.4736 254.555 23.4269C254.492 23.3802 254.415 23.3622 254.34 23.3767C248.783 24.5681 233.3 35.5963 229.137 45.1336C229.105 45.2091 229.1 45.2956 229.125 45.3745C229.15 45.4534 229.203 45.5183 229.271 45.5552C229.309 45.5739 229.351 45.5843 229.393 45.5857Z" fill="white"/>
</svg>
