<svg width="116" height="186" viewBox="0 0 116 186" fill="none" xmlns="http://www.w3.org/2000/svg">
<path d="M2.17482 185.016C1.54684 185.016 1.16895 184.448 1.16895 183.489V80.7167L115.666 8.05322V110.41C115.627 111.265 115.405 112.097 115.019 112.84C114.633 113.583 114.093 114.216 113.443 114.687L3.08622 184.705C2.81243 184.895 2.49817 185.002 2.17482 185.016Z" fill="#FAFAFA"/>
<path d="M115.322 8.67022V110.41C115.275 111.203 115.063 111.973 114.702 112.661C114.34 113.348 113.839 113.935 113.238 114.375L2.92506 184.393C2.70047 184.553 2.4419 184.646 2.17482 184.662C1.55796 184.662 1.49127 183.837 1.49127 183.489V80.9243L115.322 8.67022ZM115.972 7.44826L0.841064 80.5088V183.489C0.841064 184.711 1.3968 185.377 2.17482 185.377C2.55483 185.362 2.92461 185.237 3.24738 185.016L113.566 114.992C114.266 114.49 114.849 113.813 115.267 113.017C115.685 112.221 115.926 111.328 115.972 110.41V7.42993V7.44826Z" fill="#E0E0E0"/>
<path d="M0.84668 80.5088V97.7078L115.972 24.6289V7.42993L0.84668 80.5088Z" fill="white"/>
<path d="M9.87158 81.4254V83.8693C9.87158 84.3703 10.1995 84.578 10.594 84.3275L45.9886 61.8619V57.5851L10.594 80.0507C10.385 80.2026 10.2109 80.4059 10.0855 80.6445C9.96011 80.883 9.88688 81.1504 9.87158 81.4254Z" fill="#FAFAFA"/>
<path d="M49.7842 55.1777C50.1843 54.9211 50.5066 55.1289 50.5066 55.636V58.0799C50.4922 58.3551 50.4193 58.6228 50.2939 58.8615C50.1684 59.1003 49.9939 59.3034 49.7842 59.4546L45.9885 61.8618V57.585L49.7842 55.1777Z" fill="#455A64"/>
<path d="M0.841064 74.9673C0.886684 74.0494 1.12831 73.1563 1.54637 72.3602C1.96443 71.5641 2.54717 70.8874 3.24738 70.385L113.566 0.360981C114.894 -0.482167 115.972 0.202127 115.972 1.88842V7.42998L0.841064 80.5089V74.9673Z" fill="#455A64"/>
<path d="M103.173 9.83724C102.848 10.0737 102.578 10.391 102.385 10.7636C102.192 11.1362 102.081 11.5535 102.062 11.9818C102.062 12.776 102.568 13.0937 103.173 12.7027C103.499 12.465 103.769 12.1465 103.962 11.7729C104.155 11.3994 104.266 10.9812 104.285 10.5521C104.307 9.75171 103.801 9.44011 103.173 9.83724Z" fill="white"/>
<path d="M106.775 7.5644C106.449 7.80083 106.179 8.11818 105.986 8.49075C105.793 8.86332 105.682 9.28064 105.663 9.70893C105.663 10.5032 106.169 10.8209 106.775 10.4299C107.099 10.1914 107.369 9.87279 107.562 9.49939C107.755 9.12598 107.866 8.70815 107.886 8.27925C107.886 7.48498 107.375 7.16727 106.775 7.5644Z" fill="white"/>
<path d="M110.326 5.29158C110 5.52801 109.73 5.84535 109.537 6.21792C109.344 6.59049 109.233 7.00781 109.214 7.4361C109.214 8.23037 109.72 8.54808 110.326 8.15706C110.65 7.9186 110.92 7.59996 111.113 7.22656C111.306 6.85315 111.417 6.43532 111.437 6.00642C111.454 5.21215 110.948 4.89444 110.326 5.29158Z" fill="white"/>
<g opacity="0.1">
<path d="M79.8493 35.8221C79.1316 36.3384 78.5346 37.0334 78.1069 37.8508C77.6791 38.6682 77.4327 39.5849 77.3875 40.5266C77.3875 42.2557 78.4989 42.9705 79.8493 42.0907C80.568 41.5764 81.1661 40.8828 81.5949 40.0664C82.0236 39.2499 82.271 38.3337 82.3168 37.3923C82.3224 35.6632 81.2109 34.9606 79.8493 35.8221Z" fill="black"/>
<path d="M68.568 42.9889C67.8493 43.5031 67.2513 44.1967 66.8225 45.0132C66.3937 45.8296 66.1464 46.7458 66.1006 47.6873C66.1006 49.4163 67.2121 50.1312 68.568 49.2575C69.2858 48.7412 69.8828 48.0462 70.3105 47.2288C70.7383 46.4114 70.9847 45.4947 71.0299 44.553C71.0299 42.8239 69.9296 42.1335 68.568 42.9889Z" fill="black"/>
<path d="M91.1362 28.692C90.4186 29.207 89.8216 29.9009 89.3938 30.7173C88.966 31.5337 88.7195 32.4496 88.6743 33.3905C88.6743 35.1195 89.7858 35.8344 91.1362 34.9545C91.8552 34.4406 92.4535 33.7471 92.8823 32.9306C93.3111 32.1141 93.5583 31.1977 93.6037 30.2561C93.6037 28.4965 92.5033 27.7939 91.1362 28.692Z" fill="black"/>
<path d="M102.429 21.4825C101.71 21.9968 101.112 22.6904 100.683 23.5068C100.255 24.3233 100.007 25.2395 99.9614 26.1809C99.9614 27.91 101.073 28.6248 102.429 27.745C103.148 27.2307 103.746 26.5371 104.174 25.7207C104.603 24.9042 104.851 23.988 104.896 23.0466C104.896 21.3175 103.79 20.6149 102.429 21.4825Z" fill="black"/>
</g>
<path d="M12.3001 99.0459L39.0919 82.0363C40.4201 81.1931 41.4982 81.8774 41.4982 83.5637V111.846C41.4526 112.764 41.211 113.657 40.7929 114.453C40.3749 115.249 39.7922 115.926 39.0919 116.428L12.3001 133.432C10.9719 134.275 9.8938 133.59 9.8938 131.904V103.628C9.93942 102.71 10.181 101.817 10.5991 101.021C11.0172 100.225 11.5999 99.5483 12.3001 99.0459Z" fill="#E0E0E0"/>
<path d="M50.6456 74.6862L106.774 39.0785C108.103 38.2293 109.181 38.9135 109.181 40.6059V68.8819C109.135 69.7998 108.894 70.693 108.475 71.4891C108.057 72.2852 107.475 72.9619 106.774 73.4643L50.6456 109.072C49.3174 109.915 48.2393 109.231 48.2393 107.545V79.2685C48.2849 78.3507 48.5265 77.4575 48.9446 76.6614C49.3626 75.8653 49.9454 75.1886 50.6456 74.6862Z" fill="#E0E0E0"/>
<path d="M12.3001 142.028L54.8914 114.992C56.2251 114.149 57.3033 114.748 57.3033 116.33C57.2439 117.219 56.9951 118.08 56.5771 118.843C56.159 119.606 55.5835 120.25 54.8969 120.723L12.3001 147.759C10.9719 148.602 9.8938 148.004 9.8938 146.421C9.95318 145.533 10.202 144.672 10.62 143.909C11.038 143.146 11.6136 142.501 12.3001 142.028Z" fill="#E0E0E0"/>
<path d="M12.3001 152.06L54.8914 125.025C56.2251 124.182 57.3033 124.78 57.3033 126.363C57.2439 127.251 56.9951 128.112 56.5771 128.875C56.159 129.638 55.5835 130.282 54.8969 130.756L12.3001 157.791C10.9719 158.634 9.8938 158.036 9.8938 156.453C9.95318 155.565 10.202 154.704 10.62 153.941C11.038 153.178 11.6136 152.534 12.3001 152.06Z" fill="#E0E0E0"/>
<path d="M12.3001 162.087L54.8914 135.051C56.2251 134.208 57.3033 134.806 57.3033 136.389C57.2439 137.277 56.9951 138.138 56.5771 138.901C56.159 139.664 55.5835 140.309 54.8969 140.782L12.3001 167.817C10.9719 168.661 9.8938 168.062 9.8938 166.479C9.95318 165.591 10.202 164.73 10.62 163.967C11.038 163.204 11.6136 162.56 12.3001 162.087Z" fill="#E0E0E0"/>
</svg>
