<svg width="23" height="23" viewBox="0 0 23 23" fill="none" xmlns="http://www.w3.org/2000/svg">
<mask id="path-1-inside-1_68_3404" fill="white">
<path d="M0.760023 13.047L0.760023 10.1922L3.11213 9.85921C3.33278 8.81534 3.7515 7.82249 4.34602 6.93345L2.92484 5.05572L4.97949 3.04152L6.8799 4.44982C7.7802 3.86739 8.78404 3.45986 9.83793 3.24895L10.1739 0.929077L13.0549 0.929077L13.3909 3.25441C14.4435 3.47557 15.445 3.8903 16.3434 4.47711L18.1997 3.07428L20.2379 5.08847L18.8112 6.97166C19.4007 7.86548 19.8138 8.86198 20.0285 9.90834L22.3696 10.2413L22.3696 13.0907L20.0175 13.4236C19.7969 14.4675 19.3782 15.4603 18.7836 16.3494L20.2213 18.2053L18.1832 20.2195L16.2828 18.8112C15.3816 19.393 14.3782 19.8022 13.3248 20.0175L12.9888 22.3374L10.1134 22.3374L9.77734 20.0066C8.72267 19.7865 7.71921 19.3717 6.8193 18.7839L4.92991 20.1867L2.89179 18.2053L4.31848 16.3221C3.73131 15.4271 3.31841 14.431 3.10111 13.3854L0.760023 13.047ZM1.31087 10.6671L1.31087 12.5721L3.56933 12.8887L3.60788 13.0852C3.80811 14.1889 4.24177 15.238 4.88034 16.1638L4.99601 16.3276L3.6189 18.1398L4.97949 19.488L6.80278 18.1343L6.96803 18.2435C7.89829 18.8842 8.95543 19.3214 10.0693 19.5263L10.2621 19.5645L10.5871 21.8134L12.5095 21.8134L12.8345 19.5699L13.0273 19.5372C14.1436 19.3383 15.2044 18.9067 16.1396 18.2708L16.3048 18.1616L18.1336 19.5208L19.4942 18.1725L18.1226 16.3658L18.2383 16.202C18.8857 15.2807 19.3271 14.2329 19.5328 13.1289L19.5713 12.9378L21.8353 12.6158L21.8353 10.7107L19.5768 10.3942L19.5383 10.1976C19.3381 9.09398 18.9044 8.04479 18.2658 7.11904L18.1557 6.95528L19.5273 5.14305L18.1667 3.7948L16.3434 5.14851L16.1781 5.03934C15.2479 4.39866 14.1907 3.9614 13.0769 3.75659L12.8841 3.71838L12.5591 1.47493L10.6367 1.47493L10.3117 3.71292L10.1189 3.74567C9.00261 3.94452 7.94175 4.37619 7.00659 5.01205L6.84685 5.12122L5.01254 3.76205L3.65195 5.10484L5.02356 6.91162L4.90788 7.07537C4.26044 7.99671 3.8191 9.04447 3.6134 10.1485L3.58035 10.3396L1.31087 10.6671ZM5.48076 11.6551C5.47422 10.4604 5.82555 9.2906 6.49027 8.29386C7.15498 7.29712 8.10319 6.51823 9.21486 6.0558C10.3265 5.59336 11.5517 5.46817 12.7352 5.69608C13.9187 5.92399 15.0074 6.49474 15.8633 7.33609C16.7193 8.17744 17.3042 9.25155 17.5438 10.4224C17.7834 11.5933 17.6671 12.8083 17.2095 13.9137C16.7519 15.019 15.9736 15.9649 14.9732 16.6317C13.9728 17.2985 12.7953 17.6562 11.5896 17.6594C9.97756 17.6609 8.43037 17.0304 7.28584 15.9054C6.14131 14.7804 5.4924 13.2525 5.48076 11.6551ZM17.0981 11.6551C17.1046 10.5662 16.7843 9.50006 16.1779 8.59202C15.5715 7.68399 14.7064 6.97509 13.6925 6.55541C12.6786 6.13574 11.5617 6.02423 10.4836 6.23507C9.40563 6.44591 8.41522 6.96956 7.63824 7.7395C6.86126 8.50943 6.33281 9.49088 6.12005 10.5591C5.90729 11.6274 6.01981 12.7342 6.44332 13.7389C6.86683 14.7436 7.58222 15.6009 8.49856 16.2018C9.4149 16.8027 10.4908 17.1201 11.5896 17.1136C13.047 17.1022 14.4414 16.5234 15.4719 15.5022C16.5025 14.481 17.0865 13.0992 17.0981 11.6551Z"/>
</mask>
<path d="M0.760023 13.047L0.760023 10.1922L3.11213 9.85921C3.33278 8.81534 3.7515 7.82249 4.34602 6.93345L2.92484 5.05572L4.97949 3.04152L6.8799 4.44982C7.7802 3.86739 8.78404 3.45986 9.83793 3.24895L10.1739 0.929077L13.0549 0.929077L13.3909 3.25441C14.4435 3.47557 15.445 3.8903 16.3434 4.47711L18.1997 3.07428L20.2379 5.08847L18.8112 6.97166C19.4007 7.86548 19.8138 8.86198 20.0285 9.90834L22.3696 10.2413L22.3696 13.0907L20.0175 13.4236C19.7969 14.4675 19.3782 15.4603 18.7836 16.3494L20.2213 18.2053L18.1832 20.2195L16.2828 18.8112C15.3816 19.393 14.3782 19.8022 13.3248 20.0175L12.9888 22.3374L10.1134 22.3374L9.77734 20.0066C8.72267 19.7865 7.71921 19.3717 6.8193 18.7839L4.92991 20.1867L2.89179 18.2053L4.31848 16.3221C3.73131 15.4271 3.31841 14.431 3.10111 13.3854L0.760023 13.047ZM1.31087 10.6671L1.31087 12.5721L3.56933 12.8887L3.60788 13.0852C3.80811 14.1889 4.24177 15.238 4.88034 16.1638L4.99601 16.3276L3.6189 18.1398L4.97949 19.488L6.80278 18.1343L6.96803 18.2435C7.89829 18.8842 8.95543 19.3214 10.0693 19.5263L10.2621 19.5645L10.5871 21.8134L12.5095 21.8134L12.8345 19.5699L13.0273 19.5372C14.1436 19.3383 15.2044 18.9067 16.1396 18.2708L16.3048 18.1616L18.1336 19.5208L19.4942 18.1725L18.1226 16.3658L18.2383 16.202C18.8857 15.2807 19.3271 14.2329 19.5328 13.1289L19.5713 12.9378L21.8353 12.6158L21.8353 10.7107L19.5768 10.3942L19.5383 10.1976C19.3381 9.09398 18.9044 8.04479 18.2658 7.11904L18.1557 6.95528L19.5273 5.14305L18.1667 3.7948L16.3434 5.14851L16.1781 5.03934C15.2479 4.39866 14.1907 3.9614 13.0769 3.75659L12.8841 3.71838L12.5591 1.47493L10.6367 1.47493L10.3117 3.71292L10.1189 3.74567C9.00261 3.94452 7.94175 4.37619 7.00659 5.01205L6.84685 5.12122L5.01254 3.76205L3.65195 5.10484L5.02356 6.91162L4.90788 7.07537C4.26044 7.99671 3.8191 9.04447 3.6134 10.1485L3.58035 10.3396L1.31087 10.6671ZM5.48076 11.6551C5.47422 10.4604 5.82555 9.2906 6.49027 8.29386C7.15498 7.29712 8.10319 6.51823 9.21486 6.0558C10.3265 5.59336 11.5517 5.46817 12.7352 5.69608C13.9187 5.92399 15.0074 6.49474 15.8633 7.33609C16.7193 8.17744 17.3042 9.25155 17.5438 10.4224C17.7834 11.5933 17.6671 12.8083 17.2095 13.9137C16.7519 15.019 15.9736 15.9649 14.9732 16.6317C13.9728 17.2985 12.7953 17.6562 11.5896 17.6594C9.97756 17.6609 8.43037 17.0304 7.28584 15.9054C6.14131 14.7804 5.4924 13.2525 5.48076 11.6551ZM17.0981 11.6551C17.1046 10.5662 16.7843 9.50006 16.1779 8.59202C15.5715 7.68399 14.7064 6.97509 13.6925 6.55541C12.6786 6.13574 11.5617 6.02423 10.4836 6.23507C9.40563 6.44591 8.41522 6.96956 7.63824 7.7395C6.86126 8.50943 6.33281 9.49088 6.12005 10.5591C5.90729 11.6274 6.01981 12.7342 6.44332 13.7389C6.86683 14.7436 7.58222 15.6009 8.49856 16.2018C9.4149 16.8027 10.4908 17.1201 11.5896 17.1136C13.047 17.1022 14.4414 16.5234 15.4719 15.5022C16.5025 14.481 17.0865 13.0992 17.0981 11.6551Z" fill="#263238"/>
<path d="M0.760023 13.047L0.760023 10.1922L3.11213 9.85921C3.33278 8.81534 3.7515 7.82249 4.34602 6.93345L2.92484 5.05572L4.97949 3.04152L6.8799 4.44982C7.7802 3.86739 8.78404 3.45986 9.83793 3.24895L10.1739 0.929077L13.0549 0.929077L13.3909 3.25441C14.4435 3.47557 15.445 3.8903 16.3434 4.47711L18.1997 3.07428L20.2379 5.08847L18.8112 6.97166C19.4007 7.86548 19.8138 8.86198 20.0285 9.90834L22.3696 10.2413L22.3696 13.0907L20.0175 13.4236C19.7969 14.4675 19.3782 15.4603 18.7836 16.3494L20.2213 18.2053L18.1832 20.2195L16.2828 18.8112C15.3816 19.393 14.3782 19.8022 13.3248 20.0175L12.9888 22.3374L10.1134 22.3374L9.77734 20.0066C8.72267 19.7865 7.71921 19.3717 6.8193 18.7839L4.92991 20.1867L2.89179 18.2053L4.31848 16.3221C3.73131 15.4271 3.31841 14.431 3.10111 13.3854L0.760023 13.047ZM1.31087 10.6671L1.31087 12.5721L3.56933 12.8887L3.60788 13.0852C3.80811 14.1889 4.24177 15.238 4.88034 16.1638L4.99601 16.3276L3.6189 18.1398L4.97949 19.488L6.80278 18.1343L6.96803 18.2435C7.89829 18.8842 8.95543 19.3214 10.0693 19.5263L10.2621 19.5645L10.5871 21.8134L12.5095 21.8134L12.8345 19.5699L13.0273 19.5372C14.1436 19.3383 15.2044 18.9067 16.1396 18.2708L16.3048 18.1616L18.1336 19.5208L19.4942 18.1725L18.1226 16.3658L18.2383 16.202C18.8857 15.2807 19.3271 14.2329 19.5328 13.1289L19.5713 12.9378L21.8353 12.6158L21.8353 10.7107L19.5768 10.3942L19.5383 10.1976C19.3381 9.09398 18.9044 8.04479 18.2658 7.11904L18.1557 6.95528L19.5273 5.14305L18.1667 3.7948L16.3434 5.14851L16.1781 5.03934C15.2479 4.39866 14.1907 3.9614 13.0769 3.75659L12.8841 3.71838L12.5591 1.47493L10.6367 1.47493L10.3117 3.71292L10.1189 3.74567C9.00261 3.94452 7.94175 4.37619 7.00659 5.01205L6.84685 5.12122L5.01254 3.76205L3.65195 5.10484L5.02356 6.91162L4.90788 7.07537C4.26044 7.99671 3.8191 9.04447 3.6134 10.1485L3.58035 10.3396L1.31087 10.6671ZM5.48076 11.6551C5.47422 10.4604 5.82555 9.2906 6.49027 8.29386C7.15498 7.29712 8.10319 6.51823 9.21486 6.0558C10.3265 5.59336 11.5517 5.46817 12.7352 5.69608C13.9187 5.92399 15.0074 6.49474 15.8633 7.33609C16.7193 8.17744 17.3042 9.25155 17.5438 10.4224C17.7834 11.5933 17.6671 12.8083 17.2095 13.9137C16.7519 15.019 15.9736 15.9649 14.9732 16.6317C13.9728 17.2985 12.7953 17.6562 11.5896 17.6594C9.97756 17.6609 8.43037 17.0304 7.28584 15.9054C6.14131 14.7804 5.4924 13.2525 5.48076 11.6551ZM17.0981 11.6551C17.1046 10.5662 16.7843 9.50006 16.1779 8.59202C15.5715 7.68399 14.7064 6.97509 13.6925 6.55541C12.6786 6.13574 11.5617 6.02423 10.4836 6.23507C9.40563 6.44591 8.41522 6.96956 7.63824 7.7395C6.86126 8.50943 6.33281 9.49088 6.12005 10.5591C5.90729 11.6274 6.01981 12.7342 6.44332 13.7389C6.86683 14.7436 7.58222 15.6009 8.49856 16.2018C9.4149 16.8027 10.4908 17.1201 11.5896 17.1136C13.047 17.1022 14.4414 16.5234 15.4719 15.5022C16.5025 14.481 17.0865 13.0992 17.0981 11.6551Z" stroke="black" stroke-width="2" mask="url(#path-1-inside-1_68_3404)"/>
<path d="M0.760023 13.047L0.760023 10.1922L3.11213 9.85921C3.33278 8.81534 3.7515 7.82249 4.34602 6.93345L2.92484 5.05572L4.97949 3.04152L6.8799 4.44982C7.7802 3.86739 8.78404 3.45986 9.83793 3.24895L10.1739 0.929077L13.0549 0.929077L13.3909 3.25441C14.4435 3.47557 15.445 3.8903 16.3434 4.47711L18.1997 3.07428L20.2379 5.08847L18.8112 6.97166C19.4007 7.86548 19.8138 8.86198 20.0285 9.90834L22.3696 10.2413L22.3696 13.0907L20.0175 13.4236C19.7969 14.4675 19.3782 15.4603 18.7836 16.3494L20.2213 18.2053L18.1832 20.2195L16.2828 18.8112C15.3816 19.393 14.3782 19.8022 13.3248 20.0175L12.9888 22.3374L10.1134 22.3374L9.77734 20.0066C8.72267 19.7865 7.71921 19.3717 6.8193 18.7839L4.92991 20.1867L2.89179 18.2053L4.31848 16.3221C3.73131 15.4271 3.31841 14.431 3.10111 13.3854L0.760023 13.047ZM1.31087 10.6671L1.31087 12.5721L3.56933 12.8887L3.60788 13.0852C3.80811 14.1889 4.24177 15.238 4.88034 16.1638L4.99601 16.3276L3.6189 18.1398L4.97949 19.488L6.80278 18.1343L6.96803 18.2435C7.89829 18.8842 8.95543 19.3214 10.0693 19.5263L10.2621 19.5645L10.5871 21.8134L12.5095 21.8134L12.8345 19.5699L13.0273 19.5372C14.1436 19.3383 15.2044 18.9067 16.1396 18.2708L16.3048 18.1616L18.1336 19.5208L19.4942 18.1725L18.1226 16.3658L18.2383 16.202C18.8857 15.2807 19.3271 14.2329 19.5328 13.1289L19.5713 12.9378L21.8353 12.6158L21.8353 10.7107L19.5768 10.3942L19.5383 10.1976C19.3381 9.09398 18.9044 8.04479 18.2658 7.11904L18.1557 6.95528L19.5273 5.14305L18.1667 3.7948L16.3434 5.14851L16.1781 5.03934C15.2479 4.39866 14.1907 3.9614 13.0769 3.75659L12.8841 3.71838L12.5591 1.47493L10.6367 1.47493L10.3117 3.71292L10.1189 3.74567C9.00261 3.94452 7.94175 4.37619 7.00659 5.01205L6.84685 5.12122L5.01254 3.76205L3.65195 5.10484L5.02356 6.91162L4.90788 7.07537C4.26044 7.99671 3.8191 9.04447 3.6134 10.1485L3.58035 10.3396L1.31087 10.6671ZM5.48076 11.6551C5.47422 10.4604 5.82555 9.2906 6.49027 8.29386C7.15498 7.29712 8.10319 6.51823 9.21486 6.0558C10.3265 5.59336 11.5517 5.46817 12.7352 5.69608C13.9187 5.92399 15.0074 6.49474 15.8633 7.33609C16.7193 8.17744 17.3042 9.25155 17.5438 10.4224C17.7834 11.5933 17.6671 12.8083 17.2095 13.9137C16.7519 15.019 15.9736 15.9649 14.9732 16.6317C13.9728 17.2985 12.7953 17.6562 11.5896 17.6594C9.97756 17.6609 8.43037 17.0304 7.28584 15.9054C6.14131 14.7804 5.4924 13.2525 5.48076 11.6551ZM17.0981 11.6551C17.1046 10.5662 16.7843 9.50006 16.1779 8.59202C15.5715 7.68399 14.7064 6.97509 13.6925 6.55541C12.6786 6.13574 11.5617 6.02423 10.4836 6.23507C9.40563 6.44591 8.41522 6.96956 7.63824 7.7395C6.86126 8.50943 6.33281 9.49088 6.12005 10.5591C5.90729 11.6274 6.01981 12.7342 6.44332 13.7389C6.86683 14.7436 7.58222 15.6009 8.49856 16.2018C9.4149 16.8027 10.4908 17.1201 11.5896 17.1136C13.047 17.1022 14.4414 16.5234 15.4719 15.5022C16.5025 14.481 17.0865 13.0992 17.0981 11.6551Z" stroke="black" stroke-width="2" mask="url(#path-1-inside-1_68_3404)"/>
</svg>
