<svg width="40" height="39" viewBox="0 0 40 39" fill="none" xmlns="http://www.w3.org/2000/svg">
<mask id="path-1-inside-1_68_3401" fill="white">
<path d="M0.936755 21.3592L0.936755 16.6103L5.12317 16.0208C5.51794 14.068 6.30063 12.2125 7.4257 10.5622L4.89732 7.22162L8.28502 3.86464L11.6672 6.38101C13.3355 5.27834 15.2077 4.514 17.1756 4.1321L17.7761 -9.42178e-07L22.5629 -7.32939e-07L23.1633 4.14848C25.1341 4.53911 27.0067 5.31475 28.6717 6.43013L32.0429 3.92468L35.4306 7.28166L32.8912 10.6332C34.0062 12.2852 34.7777 14.1409 35.1607 16.0917L39.3306 16.6867L39.3306 21.4302L35.1442 22.0251C34.7499 23.9781 33.9672 25.8337 32.8416 27.4836L35.37 30.8243L31.9823 34.1812L28.6001 31.6649C26.934 32.7716 25.061 33.5362 23.0917 33.9138L22.4968 38.0459L17.7044 38.0459L17.104 33.8974C15.1335 33.5058 13.2612 32.7302 11.5956 31.6157L8.22442 34.1212L4.83673 30.7642L7.38714 27.4236C6.27257 25.7714 5.50109 23.9158 5.11767 21.9651L0.936755 21.3592ZM1.4876 17.0852L1.4876 20.9061L5.57487 21.4847L5.61342 21.6812C5.98271 23.6874 6.77479 25.5939 7.93798 27.2762L8.05366 27.44L5.56385 30.7151L8.2795 33.4007L11.5846 30.9443L11.7443 31.059C13.4424 32.226 15.3703 33.024 17.4015 33.4007L17.5943 33.4334L18.1837 37.5328L22.0396 37.5328L22.6235 33.4826L22.8218 33.4444C24.855 33.0849 26.7875 32.2996 28.49 31.1409L28.6552 31.0317L31.9603 33.4935L34.6704 30.8079L32.1916 27.5328L32.3073 27.369C33.485 25.6863 34.2903 23.7759 34.6704 21.7631L34.7035 21.5721L38.7852 20.9662L38.7852 17.1452L34.698 16.5666L34.6594 16.3756C34.2956 14.3593 33.5032 12.4429 32.3348 10.7533L32.2247 10.5895L34.709 7.31443L31.9988 4.62883L28.6938 7.08516L28.5285 6.97599C26.8317 5.80679 24.9033 5.00858 22.8714 4.63429L22.6786 4.59608L22.0892 0.529476L18.2333 0.529476L17.6494 4.5797L17.4566 4.61792C15.4221 4.99247 13.4916 5.79265 11.7939 6.96507L11.6286 7.07425L8.32357 4.60699L5.61342 7.29804L8.09222 10.5731L7.98205 10.7314C6.79993 12.4117 5.99419 14.3231 5.61893 16.3374L5.58037 16.5284L1.4876 17.0852ZM9.41424 19.0284C9.41424 16.9254 10.0436 14.8695 11.2226 13.1209C12.4017 11.3723 14.0776 10.0094 16.0383 9.2046C17.999 8.3998 20.1566 8.18923 22.2381 8.59952C24.3196 9.0098 26.2316 10.0225 27.7322 11.5096C29.2329 12.9967 30.2549 14.8913 30.6689 16.954C31.083 19.0166 30.8705 21.1546 30.0583 23.0976C29.2462 25.0405 27.8708 26.7012 26.1062 27.8696C24.3416 29.038 22.267 29.6616 20.1447 29.6616C17.2997 29.6587 14.572 28.5375 12.5603 26.544C10.5486 24.5505 9.41716 21.8476 9.41424 19.0284ZM30.3188 19.0284C30.3188 17.0331 29.7216 15.0826 28.6028 13.4236C27.484 11.7646 25.8939 10.4717 24.0335 9.70839C22.1731 8.94507 20.126 8.74562 18.1512 9.13529C16.1764 9.52495 14.3626 10.4862 12.9392 11.8975C11.5157 13.3088 10.5467 15.1067 10.1545 17.0638C9.76234 19.0209 9.96472 21.0493 10.736 22.8924C11.5073 24.7356 12.813 26.3106 14.4877 27.4184C16.1624 28.5261 18.1311 29.1168 20.1447 29.1157C22.8431 29.1128 25.43 28.049 27.3376 26.1577C29.2451 24.2664 30.3173 21.7023 30.3188 19.0284Z"/>
</mask>
<path d="M0.936755 21.3592L0.936755 16.6103L5.12317 16.0208C5.51794 14.068 6.30063 12.2125 7.4257 10.5622L4.89732 7.22162L8.28502 3.86464L11.6672 6.38101C13.3355 5.27834 15.2077 4.514 17.1756 4.1321L17.7761 -9.42178e-07L22.5629 -7.32939e-07L23.1633 4.14848C25.1341 4.53911 27.0067 5.31475 28.6717 6.43013L32.0429 3.92468L35.4306 7.28166L32.8912 10.6332C34.0062 12.2852 34.7777 14.1409 35.1607 16.0917L39.3306 16.6867L39.3306 21.4302L35.1442 22.0251C34.7499 23.9781 33.9672 25.8337 32.8416 27.4836L35.37 30.8243L31.9823 34.1812L28.6001 31.6649C26.934 32.7716 25.061 33.5362 23.0917 33.9138L22.4968 38.0459L17.7044 38.0459L17.104 33.8974C15.1335 33.5058 13.2612 32.7302 11.5956 31.6157L8.22442 34.1212L4.83673 30.7642L7.38714 27.4236C6.27257 25.7714 5.50109 23.9158 5.11767 21.9651L0.936755 21.3592ZM1.4876 17.0852L1.4876 20.9061L5.57487 21.4847L5.61342 21.6812C5.98271 23.6874 6.77479 25.5939 7.93798 27.2762L8.05366 27.44L5.56385 30.7151L8.2795 33.4007L11.5846 30.9443L11.7443 31.059C13.4424 32.226 15.3703 33.024 17.4015 33.4007L17.5943 33.4334L18.1837 37.5328L22.0396 37.5328L22.6235 33.4826L22.8218 33.4444C24.855 33.0849 26.7875 32.2996 28.49 31.1409L28.6552 31.0317L31.9603 33.4935L34.6704 30.8079L32.1916 27.5328L32.3073 27.369C33.485 25.6863 34.2903 23.7759 34.6704 21.7631L34.7035 21.5721L38.7852 20.9662L38.7852 17.1452L34.698 16.5666L34.6594 16.3756C34.2956 14.3593 33.5032 12.4429 32.3348 10.7533L32.2247 10.5895L34.709 7.31443L31.9988 4.62883L28.6938 7.08516L28.5285 6.97599C26.8317 5.80679 24.9033 5.00858 22.8714 4.63429L22.6786 4.59608L22.0892 0.529476L18.2333 0.529476L17.6494 4.5797L17.4566 4.61792C15.4221 4.99247 13.4916 5.79265 11.7939 6.96507L11.6286 7.07425L8.32357 4.60699L5.61342 7.29804L8.09222 10.5731L7.98205 10.7314C6.79993 12.4117 5.99419 14.3231 5.61893 16.3374L5.58037 16.5284L1.4876 17.0852ZM9.41424 19.0284C9.41424 16.9254 10.0436 14.8695 11.2226 13.1209C12.4017 11.3723 14.0776 10.0094 16.0383 9.2046C17.999 8.3998 20.1566 8.18923 22.2381 8.59952C24.3196 9.0098 26.2316 10.0225 27.7322 11.5096C29.2329 12.9967 30.2549 14.8913 30.6689 16.954C31.083 19.0166 30.8705 21.1546 30.0583 23.0976C29.2462 25.0405 27.8708 26.7012 26.1062 27.8696C24.3416 29.038 22.267 29.6616 20.1447 29.6616C17.2997 29.6587 14.572 28.5375 12.5603 26.544C10.5486 24.5505 9.41716 21.8476 9.41424 19.0284ZM30.3188 19.0284C30.3188 17.0331 29.7216 15.0826 28.6028 13.4236C27.484 11.7646 25.8939 10.4717 24.0335 9.70839C22.1731 8.94507 20.126 8.74562 18.1512 9.13529C16.1764 9.52495 14.3626 10.4862 12.9392 11.8975C11.5157 13.3088 10.5467 15.1067 10.1545 17.0638C9.76234 19.0209 9.96472 21.0493 10.736 22.8924C11.5073 24.7356 12.813 26.3106 14.4877 27.4184C16.1624 28.5261 18.1311 29.1168 20.1447 29.1157C22.8431 29.1128 25.43 28.049 27.3376 26.1577C29.2451 24.2664 30.3173 21.7023 30.3188 19.0284Z" fill="#263238"/>
<path d="M0.936755 21.3592L0.936755 16.6103L5.12317 16.0208C5.51794 14.068 6.30063 12.2125 7.4257 10.5622L4.89732 7.22162L8.28502 3.86464L11.6672 6.38101C13.3355 5.27834 15.2077 4.514 17.1756 4.1321L17.7761 -9.42178e-07L22.5629 -7.32939e-07L23.1633 4.14848C25.1341 4.53911 27.0067 5.31475 28.6717 6.43013L32.0429 3.92468L35.4306 7.28166L32.8912 10.6332C34.0062 12.2852 34.7777 14.1409 35.1607 16.0917L39.3306 16.6867L39.3306 21.4302L35.1442 22.0251C34.7499 23.9781 33.9672 25.8337 32.8416 27.4836L35.37 30.8243L31.9823 34.1812L28.6001 31.6649C26.934 32.7716 25.061 33.5362 23.0917 33.9138L22.4968 38.0459L17.7044 38.0459L17.104 33.8974C15.1335 33.5058 13.2612 32.7302 11.5956 31.6157L8.22442 34.1212L4.83673 30.7642L7.38714 27.4236C6.27257 25.7714 5.50109 23.9158 5.11767 21.9651L0.936755 21.3592ZM1.4876 17.0852L1.4876 20.9061L5.57487 21.4847L5.61342 21.6812C5.98271 23.6874 6.77479 25.5939 7.93798 27.2762L8.05366 27.44L5.56385 30.7151L8.2795 33.4007L11.5846 30.9443L11.7443 31.059C13.4424 32.226 15.3703 33.024 17.4015 33.4007L17.5943 33.4334L18.1837 37.5328L22.0396 37.5328L22.6235 33.4826L22.8218 33.4444C24.855 33.0849 26.7875 32.2996 28.49 31.1409L28.6552 31.0317L31.9603 33.4935L34.6704 30.8079L32.1916 27.5328L32.3073 27.369C33.485 25.6863 34.2903 23.7759 34.6704 21.7631L34.7035 21.5721L38.7852 20.9662L38.7852 17.1452L34.698 16.5666L34.6594 16.3756C34.2956 14.3593 33.5032 12.4429 32.3348 10.7533L32.2247 10.5895L34.709 7.31443L31.9988 4.62883L28.6938 7.08516L28.5285 6.97599C26.8317 5.80679 24.9033 5.00858 22.8714 4.63429L22.6786 4.59608L22.0892 0.529476L18.2333 0.529476L17.6494 4.5797L17.4566 4.61792C15.4221 4.99247 13.4916 5.79265 11.7939 6.96507L11.6286 7.07425L8.32357 4.60699L5.61342 7.29804L8.09222 10.5731L7.98205 10.7314C6.79993 12.4117 5.99419 14.3231 5.61893 16.3374L5.58037 16.5284L1.4876 17.0852ZM9.41424 19.0284C9.41424 16.9254 10.0436 14.8695 11.2226 13.1209C12.4017 11.3723 14.0776 10.0094 16.0383 9.2046C17.999 8.3998 20.1566 8.18923 22.2381 8.59952C24.3196 9.0098 26.2316 10.0225 27.7322 11.5096C29.2329 12.9967 30.2549 14.8913 30.6689 16.954C31.083 19.0166 30.8705 21.1546 30.0583 23.0976C29.2462 25.0405 27.8708 26.7012 26.1062 27.8696C24.3416 29.038 22.267 29.6616 20.1447 29.6616C17.2997 29.6587 14.572 28.5375 12.5603 26.544C10.5486 24.5505 9.41716 21.8476 9.41424 19.0284ZM30.3188 19.0284C30.3188 17.0331 29.7216 15.0826 28.6028 13.4236C27.484 11.7646 25.8939 10.4717 24.0335 9.70839C22.1731 8.94507 20.126 8.74562 18.1512 9.13529C16.1764 9.52495 14.3626 10.4862 12.9392 11.8975C11.5157 13.3088 10.5467 15.1067 10.1545 17.0638C9.76234 19.0209 9.96472 21.0493 10.736 22.8924C11.5073 24.7356 12.813 26.3106 14.4877 27.4184C16.1624 28.5261 18.1311 29.1168 20.1447 29.1157C22.8431 29.1128 25.43 28.049 27.3376 26.1577C29.2451 24.2664 30.3173 21.7023 30.3188 19.0284Z" stroke="black" stroke-width="4" mask="url(#path-1-inside-1_68_3401)"/>
<path d="M0.936755 21.3592L0.936755 16.6103L5.12317 16.0208C5.51794 14.068 6.30063 12.2125 7.4257 10.5622L4.89732 7.22162L8.28502 3.86464L11.6672 6.38101C13.3355 5.27834 15.2077 4.514 17.1756 4.1321L17.7761 -9.42178e-07L22.5629 -7.32939e-07L23.1633 4.14848C25.1341 4.53911 27.0067 5.31475 28.6717 6.43013L32.0429 3.92468L35.4306 7.28166L32.8912 10.6332C34.0062 12.2852 34.7777 14.1409 35.1607 16.0917L39.3306 16.6867L39.3306 21.4302L35.1442 22.0251C34.7499 23.9781 33.9672 25.8337 32.8416 27.4836L35.37 30.8243L31.9823 34.1812L28.6001 31.6649C26.934 32.7716 25.061 33.5362 23.0917 33.9138L22.4968 38.0459L17.7044 38.0459L17.104 33.8974C15.1335 33.5058 13.2612 32.7302 11.5956 31.6157L8.22442 34.1212L4.83673 30.7642L7.38714 27.4236C6.27257 25.7714 5.50109 23.9158 5.11767 21.9651L0.936755 21.3592ZM1.4876 17.0852L1.4876 20.9061L5.57487 21.4847L5.61342 21.6812C5.98271 23.6874 6.77479 25.5939 7.93798 27.2762L8.05366 27.44L5.56385 30.7151L8.2795 33.4007L11.5846 30.9443L11.7443 31.059C13.4424 32.226 15.3703 33.024 17.4015 33.4007L17.5943 33.4334L18.1837 37.5328L22.0396 37.5328L22.6235 33.4826L22.8218 33.4444C24.855 33.0849 26.7875 32.2996 28.49 31.1409L28.6552 31.0317L31.9603 33.4935L34.6704 30.8079L32.1916 27.5328L32.3073 27.369C33.485 25.6863 34.2903 23.7759 34.6704 21.7631L34.7035 21.5721L38.7852 20.9662L38.7852 17.1452L34.698 16.5666L34.6594 16.3756C34.2956 14.3593 33.5032 12.4429 32.3348 10.7533L32.2247 10.5895L34.709 7.31443L31.9988 4.62883L28.6938 7.08516L28.5285 6.97599C26.8317 5.80679 24.9033 5.00858 22.8714 4.63429L22.6786 4.59608L22.0892 0.529476L18.2333 0.529476L17.6494 4.5797L17.4566 4.61792C15.4221 4.99247 13.4916 5.79265 11.7939 6.96507L11.6286 7.07425L8.32357 4.60699L5.61342 7.29804L8.09222 10.5731L7.98205 10.7314C6.79993 12.4117 5.99419 14.3231 5.61893 16.3374L5.58037 16.5284L1.4876 17.0852ZM9.41424 19.0284C9.41424 16.9254 10.0436 14.8695 11.2226 13.1209C12.4017 11.3723 14.0776 10.0094 16.0383 9.2046C17.999 8.3998 20.1566 8.18923 22.2381 8.59952C24.3196 9.0098 26.2316 10.0225 27.7322 11.5096C29.2329 12.9967 30.2549 14.8913 30.6689 16.954C31.083 19.0166 30.8705 21.1546 30.0583 23.0976C29.2462 25.0405 27.8708 26.7012 26.1062 27.8696C24.3416 29.038 22.267 29.6616 20.1447 29.6616C17.2997 29.6587 14.572 28.5375 12.5603 26.544C10.5486 24.5505 9.41716 21.8476 9.41424 19.0284ZM30.3188 19.0284C30.3188 17.0331 29.7216 15.0826 28.6028 13.4236C27.484 11.7646 25.8939 10.4717 24.0335 9.70839C22.1731 8.94507 20.126 8.74562 18.1512 9.13529C16.1764 9.52495 14.3626 10.4862 12.9392 11.8975C11.5157 13.3088 10.5467 15.1067 10.1545 17.0638C9.76234 19.0209 9.96472 21.0493 10.736 22.8924C11.5073 24.7356 12.813 26.3106 14.4877 27.4184C16.1624 28.5261 18.1311 29.1168 20.1447 29.1157C22.8431 29.1128 25.43 28.049 27.3376 26.1577C29.2451 24.2664 30.3173 21.7023 30.3188 19.0284Z" stroke="black" stroke-width="4" mask="url(#path-1-inside-1_68_3401)"/>
</svg>
