<svg width="36" height="36" viewBox="0 0 36 36" fill="none" xmlns="http://www.w3.org/2000/svg">
<mask id="path-1-inside-1_68_3403" fill="white">
<path d="M0.360438 19.9556L0.360439 15.5888L4.1833 15.0429C4.54381 13.2683 5.25522 11.582 6.2765 10.0811L3.96847 7.02982L7.07523 3.9403L10.1655 6.23288C11.6875 5.23399 13.3924 4.54043 15.1836 4.19139L15.7345 0.419555L20.1412 0.419555L20.6921 4.20777C22.4809 4.56612 24.1806 5.27102 25.6937 6.28201L28.773 3.99489L31.8962 7.08441L29.5772 10.1466C30.5947 11.661 31.2987 13.3606 31.6484 15.1466L35.4602 15.6925L35.4602 20.0593L31.6318 20.6052C31.2732 22.3777 30.5636 24.0623 29.5441 25.5615L31.8522 28.6128L28.7289 31.7078L25.6387 29.4098C24.1183 30.4118 22.4128 31.1056 20.6205 31.4512L20.0696 35.2285L15.6629 35.2285L15.112 31.4076C13.3215 31.0523 11.6198 30.3492 10.1049 29.3388L7.02565 31.6259L3.90787 28.5309L6.22142 25.4687C5.20878 23.9629 4.50848 22.2725 4.16127 20.496L0.360438 19.9556ZM0.911281 16.0582L0.911281 19.5135L4.6405 20.0593L4.67355 20.2558C5.00671 22.092 5.72957 23.8372 6.7943 25.3759L6.90447 25.5342L4.6405 28.5309L7.08073 30.9545L10.0938 28.7165L10.2591 28.8257C11.8055 29.8915 13.563 30.6191 15.415 30.96L15.6078 30.9982L16.1586 34.7045L19.6124 34.7045L20.1633 31.0091L20.3616 30.9709C22.2146 30.6407 23.9757 29.9244 25.5285 28.8694L25.6882 28.7602L28.7124 31.0091L31.1581 28.5855L28.8997 25.5997L29.0098 25.436C30.0831 23.9043 30.8171 22.165 31.1636 20.3322L31.1967 20.1412L34.9424 19.5953L34.9424 16.1346L31.2132 15.5888L31.1746 15.3977C30.8425 13.5612 30.1195 11.8158 29.0539 10.2776L28.9437 10.1139L31.2132 7.11716L28.7675 4.69904L25.7543 6.93703L25.5891 6.8224C24.0447 5.75773 22.2888 5.03195 20.4387 4.69358L20.2459 4.65537L19.6951 0.949032L16.2358 0.949032L15.6849 4.64445L15.4921 4.6772C13.6392 5.00782 11.8782 5.72409 10.3252 6.77873L10.16 6.8879L7.13582 4.64445L4.69558 7.06803L6.95404 10.0538L6.83837 10.2121C5.76443 11.7448 5.03209 13.4865 4.69007 15.3213L4.65152 15.5124L0.911281 16.0582ZM8.07225 17.8104C8.07116 15.8863 8.64594 14.0052 9.72387 12.4048C10.8018 10.8045 12.3345 9.55691 14.128 8.81986C15.9216 8.0828 17.8954 7.88939 19.7999 8.2641C21.7044 8.6388 23.454 9.56479 24.8273 10.9249C26.2007 12.2851 27.1361 14.0183 27.5153 15.9053C27.8945 17.7923 27.7004 19.7484 26.9576 21.5261C26.2149 23.3038 24.9567 24.8233 23.3424 25.8923C21.728 26.9614 19.83 27.532 17.8883 27.532C15.2906 27.5234 12.802 26.4958 10.9667 24.6741C9.13138 22.8523 8.09864 20.3846 8.09429 17.8104L8.07225 17.8104ZM27.148 17.8104C27.1491 15.9941 26.6065 14.2182 25.5888 12.7075C24.5711 11.1968 23.1242 10.0192 21.431 9.32364C19.7377 8.62805 17.8744 8.44577 16.0766 8.79986C14.2788 9.15394 12.6274 10.0285 11.3313 11.3128C10.0352 12.5972 9.15268 14.2336 8.79535 16.0151C8.43803 17.7966 8.62197 19.6431 9.32391 21.321C10.0259 22.9988 11.2143 24.4327 12.7387 25.4411C14.2632 26.4496 16.0553 26.9873 17.8883 26.9862C19.1057 26.9876 20.3115 26.7514 21.4369 26.2911C22.5622 25.8307 23.585 25.1552 24.4469 24.3032C25.3088 23.4511 25.9929 22.4392 26.4601 21.3252C26.9273 20.2111 27.1686 19.0168 27.17 17.8104L27.148 17.8104Z"/>
</mask>
<path d="M0.360438 19.9556L0.360439 15.5888L4.1833 15.0429C4.54381 13.2683 5.25522 11.582 6.2765 10.0811L3.96847 7.02982L7.07523 3.9403L10.1655 6.23288C11.6875 5.23399 13.3924 4.54043 15.1836 4.19139L15.7345 0.419555L20.1412 0.419555L20.6921 4.20777C22.4809 4.56612 24.1806 5.27102 25.6937 6.28201L28.773 3.99489L31.8962 7.08441L29.5772 10.1466C30.5947 11.661 31.2987 13.3606 31.6484 15.1466L35.4602 15.6925L35.4602 20.0593L31.6318 20.6052C31.2732 22.3777 30.5636 24.0623 29.5441 25.5615L31.8522 28.6128L28.7289 31.7078L25.6387 29.4098C24.1183 30.4118 22.4128 31.1056 20.6205 31.4512L20.0696 35.2285L15.6629 35.2285L15.112 31.4076C13.3215 31.0523 11.6198 30.3492 10.1049 29.3388L7.02565 31.6259L3.90787 28.5309L6.22142 25.4687C5.20878 23.9629 4.50848 22.2725 4.16127 20.496L0.360438 19.9556ZM0.911281 16.0582L0.911281 19.5135L4.6405 20.0593L4.67355 20.2558C5.00671 22.092 5.72957 23.8372 6.7943 25.3759L6.90447 25.5342L4.6405 28.5309L7.08073 30.9545L10.0938 28.7165L10.2591 28.8257C11.8055 29.8915 13.563 30.6191 15.415 30.96L15.6078 30.9982L16.1586 34.7045L19.6124 34.7045L20.1633 31.0091L20.3616 30.9709C22.2146 30.6407 23.9757 29.9244 25.5285 28.8694L25.6882 28.7602L28.7124 31.0091L31.1581 28.5855L28.8997 25.5997L29.0098 25.436C30.0831 23.9043 30.8171 22.165 31.1636 20.3322L31.1967 20.1412L34.9424 19.5953L34.9424 16.1346L31.2132 15.5888L31.1746 15.3977C30.8425 13.5612 30.1195 11.8158 29.0539 10.2776L28.9437 10.1139L31.2132 7.11716L28.7675 4.69904L25.7543 6.93703L25.5891 6.8224C24.0447 5.75773 22.2888 5.03195 20.4387 4.69358L20.2459 4.65537L19.6951 0.949032L16.2358 0.949032L15.6849 4.64445L15.4921 4.6772C13.6392 5.00782 11.8782 5.72409 10.3252 6.77873L10.16 6.8879L7.13582 4.64445L4.69558 7.06803L6.95404 10.0538L6.83837 10.2121C5.76443 11.7448 5.03209 13.4865 4.69007 15.3213L4.65152 15.5124L0.911281 16.0582ZM8.07225 17.8104C8.07116 15.8863 8.64594 14.0052 9.72387 12.4048C10.8018 10.8045 12.3345 9.55691 14.128 8.81986C15.9216 8.0828 17.8954 7.88939 19.7999 8.2641C21.7044 8.6388 23.454 9.56479 24.8273 10.9249C26.2007 12.2851 27.1361 14.0183 27.5153 15.9053C27.8945 17.7923 27.7004 19.7484 26.9576 21.5261C26.2149 23.3038 24.9567 24.8233 23.3424 25.8923C21.728 26.9614 19.83 27.532 17.8883 27.532C15.2906 27.5234 12.802 26.4958 10.9667 24.6741C9.13138 22.8523 8.09864 20.3846 8.09429 17.8104L8.07225 17.8104ZM27.148 17.8104C27.1491 15.9941 26.6065 14.2182 25.5888 12.7075C24.5711 11.1968 23.1242 10.0192 21.431 9.32364C19.7377 8.62805 17.8744 8.44577 16.0766 8.79986C14.2788 9.15394 12.6274 10.0285 11.3313 11.3128C10.0352 12.5972 9.15268 14.2336 8.79535 16.0151C8.43803 17.7966 8.62197 19.6431 9.32391 21.321C10.0259 22.9988 11.2143 24.4327 12.7387 25.4411C14.2632 26.4496 16.0553 26.9873 17.8883 26.9862C19.1057 26.9876 20.3115 26.7514 21.4369 26.2911C22.5622 25.8307 23.585 25.1552 24.4469 24.3032C25.3088 23.4511 25.9929 22.4392 26.4601 21.3252C26.9273 20.2111 27.1686 19.0168 27.17 17.8104L27.148 17.8104Z" fill="#263238"/>
<path d="M0.360438 19.9556L0.360439 15.5888L4.1833 15.0429C4.54381 13.2683 5.25522 11.582 6.2765 10.0811L3.96847 7.02982L7.07523 3.9403L10.1655 6.23288C11.6875 5.23399 13.3924 4.54043 15.1836 4.19139L15.7345 0.419555L20.1412 0.419555L20.6921 4.20777C22.4809 4.56612 24.1806 5.27102 25.6937 6.28201L28.773 3.99489L31.8962 7.08441L29.5772 10.1466C30.5947 11.661 31.2987 13.3606 31.6484 15.1466L35.4602 15.6925L35.4602 20.0593L31.6318 20.6052C31.2732 22.3777 30.5636 24.0623 29.5441 25.5615L31.8522 28.6128L28.7289 31.7078L25.6387 29.4098C24.1183 30.4118 22.4128 31.1056 20.6205 31.4512L20.0696 35.2285L15.6629 35.2285L15.112 31.4076C13.3215 31.0523 11.6198 30.3492 10.1049 29.3388L7.02565 31.6259L3.90787 28.5309L6.22142 25.4687C5.20878 23.9629 4.50848 22.2725 4.16127 20.496L0.360438 19.9556ZM0.911281 16.0582L0.911281 19.5135L4.6405 20.0593L4.67355 20.2558C5.00671 22.092 5.72957 23.8372 6.7943 25.3759L6.90447 25.5342L4.6405 28.5309L7.08073 30.9545L10.0938 28.7165L10.2591 28.8257C11.8055 29.8915 13.563 30.6191 15.415 30.96L15.6078 30.9982L16.1586 34.7045L19.6124 34.7045L20.1633 31.0091L20.3616 30.9709C22.2146 30.6407 23.9757 29.9244 25.5285 28.8694L25.6882 28.7602L28.7124 31.0091L31.1581 28.5855L28.8997 25.5997L29.0098 25.436C30.0831 23.9043 30.8171 22.165 31.1636 20.3322L31.1967 20.1412L34.9424 19.5953L34.9424 16.1346L31.2132 15.5888L31.1746 15.3977C30.8425 13.5612 30.1195 11.8158 29.0539 10.2776L28.9437 10.1139L31.2132 7.11716L28.7675 4.69904L25.7543 6.93703L25.5891 6.8224C24.0447 5.75773 22.2888 5.03195 20.4387 4.69358L20.2459 4.65537L19.6951 0.949032L16.2358 0.949032L15.6849 4.64445L15.4921 4.6772C13.6392 5.00782 11.8782 5.72409 10.3252 6.77873L10.16 6.8879L7.13582 4.64445L4.69558 7.06803L6.95404 10.0538L6.83837 10.2121C5.76443 11.7448 5.03209 13.4865 4.69007 15.3213L4.65152 15.5124L0.911281 16.0582ZM8.07225 17.8104C8.07116 15.8863 8.64594 14.0052 9.72387 12.4048C10.8018 10.8045 12.3345 9.55691 14.128 8.81986C15.9216 8.0828 17.8954 7.88939 19.7999 8.2641C21.7044 8.6388 23.454 9.56479 24.8273 10.9249C26.2007 12.2851 27.1361 14.0183 27.5153 15.9053C27.8945 17.7923 27.7004 19.7484 26.9576 21.5261C26.2149 23.3038 24.9567 24.8233 23.3424 25.8923C21.728 26.9614 19.83 27.532 17.8883 27.532C15.2906 27.5234 12.802 26.4958 10.9667 24.6741C9.13138 22.8523 8.09864 20.3846 8.09429 17.8104L8.07225 17.8104ZM27.148 17.8104C27.1491 15.9941 26.6065 14.2182 25.5888 12.7075C24.5711 11.1968 23.1242 10.0192 21.431 9.32364C19.7377 8.62805 17.8744 8.44577 16.0766 8.79986C14.2788 9.15394 12.6274 10.0285 11.3313 11.3128C10.0352 12.5972 9.15268 14.2336 8.79535 16.0151C8.43803 17.7966 8.62197 19.6431 9.32391 21.321C10.0259 22.9988 11.2143 24.4327 12.7387 25.4411C14.2632 26.4496 16.0553 26.9873 17.8883 26.9862C19.1057 26.9876 20.3115 26.7514 21.4369 26.2911C22.5622 25.8307 23.585 25.1552 24.4469 24.3032C25.3088 23.4511 25.9929 22.4392 26.4601 21.3252C26.9273 20.2111 27.1686 19.0168 27.17 17.8104L27.148 17.8104Z" stroke="black" stroke-width="2" mask="url(#path-1-inside-1_68_3403)"/>
<path d="M0.360438 19.9556L0.360439 15.5888L4.1833 15.0429C4.54381 13.2683 5.25522 11.582 6.2765 10.0811L3.96847 7.02982L7.07523 3.9403L10.1655 6.23288C11.6875 5.23399 13.3924 4.54043 15.1836 4.19139L15.7345 0.419555L20.1412 0.419555L20.6921 4.20777C22.4809 4.56612 24.1806 5.27102 25.6937 6.28201L28.773 3.99489L31.8962 7.08441L29.5772 10.1466C30.5947 11.661 31.2987 13.3606 31.6484 15.1466L35.4602 15.6925L35.4602 20.0593L31.6318 20.6052C31.2732 22.3777 30.5636 24.0623 29.5441 25.5615L31.8522 28.6128L28.7289 31.7078L25.6387 29.4098C24.1183 30.4118 22.4128 31.1056 20.6205 31.4512L20.0696 35.2285L15.6629 35.2285L15.112 31.4076C13.3215 31.0523 11.6198 30.3492 10.1049 29.3388L7.02565 31.6259L3.90787 28.5309L6.22142 25.4687C5.20878 23.9629 4.50848 22.2725 4.16127 20.496L0.360438 19.9556ZM0.911281 16.0582L0.911281 19.5135L4.6405 20.0593L4.67355 20.2558C5.00671 22.092 5.72957 23.8372 6.7943 25.3759L6.90447 25.5342L4.6405 28.5309L7.08073 30.9545L10.0938 28.7165L10.2591 28.8257C11.8055 29.8915 13.563 30.6191 15.415 30.96L15.6078 30.9982L16.1586 34.7045L19.6124 34.7045L20.1633 31.0091L20.3616 30.9709C22.2146 30.6407 23.9757 29.9244 25.5285 28.8694L25.6882 28.7602L28.7124 31.0091L31.1581 28.5855L28.8997 25.5997L29.0098 25.436C30.0831 23.9043 30.8171 22.165 31.1636 20.3322L31.1967 20.1412L34.9424 19.5953L34.9424 16.1346L31.2132 15.5888L31.1746 15.3977C30.8425 13.5612 30.1195 11.8158 29.0539 10.2776L28.9437 10.1139L31.2132 7.11716L28.7675 4.69904L25.7543 6.93703L25.5891 6.8224C24.0447 5.75773 22.2888 5.03195 20.4387 4.69358L20.2459 4.65537L19.6951 0.949032L16.2358 0.949032L15.6849 4.64445L15.4921 4.6772C13.6392 5.00782 11.8782 5.72409 10.3252 6.77873L10.16 6.8879L7.13582 4.64445L4.69558 7.06803L6.95404 10.0538L6.83837 10.2121C5.76443 11.7448 5.03209 13.4865 4.69007 15.3213L4.65152 15.5124L0.911281 16.0582ZM8.07225 17.8104C8.07116 15.8863 8.64594 14.0052 9.72387 12.4048C10.8018 10.8045 12.3345 9.55691 14.128 8.81986C15.9216 8.0828 17.8954 7.88939 19.7999 8.2641C21.7044 8.6388 23.454 9.56479 24.8273 10.9249C26.2007 12.2851 27.1361 14.0183 27.5153 15.9053C27.8945 17.7923 27.7004 19.7484 26.9576 21.5261C26.2149 23.3038 24.9567 24.8233 23.3424 25.8923C21.728 26.9614 19.83 27.532 17.8883 27.532C15.2906 27.5234 12.802 26.4958 10.9667 24.6741C9.13138 22.8523 8.09864 20.3846 8.09429 17.8104L8.07225 17.8104ZM27.148 17.8104C27.1491 15.9941 26.6065 14.2182 25.5888 12.7075C24.5711 11.1968 23.1242 10.0192 21.431 9.32364C19.7377 8.62805 17.8744 8.44577 16.0766 8.79986C14.2788 9.15394 12.6274 10.0285 11.3313 11.3128C10.0352 12.5972 9.15268 14.2336 8.79535 16.0151C8.43803 17.7966 8.62197 19.6431 9.32391 21.321C10.0259 22.9988 11.2143 24.4327 12.7387 25.4411C14.2632 26.4496 16.0553 26.9873 17.8883 26.9862C19.1057 26.9876 20.3115 26.7514 21.4369 26.2911C22.5622 25.8307 23.585 25.1552 24.4469 24.3032C25.3088 23.4511 25.9929 22.4392 26.4601 21.3252C26.9273 20.2111 27.1686 19.0168 27.17 17.8104L27.148 17.8104Z" stroke="black" stroke-width="2" mask="url(#path-1-inside-1_68_3403)"/>
</svg>
