<svg width="29" height="29" viewBox="0 0 29 29" fill="none" xmlns="http://www.w3.org/2000/svg">
<mask id="path-1-inside-1_68_3402" fill="white">
<path d="M0.515462 16.1084L0.515462 12.5822L3.52307 12.1564C3.8103 10.7915 4.36015 9.49426 5.14255 8.33547L3.32477 5.93919L5.84212 3.44464L8.27686 5.25141C9.44584 4.48105 10.7558 3.94513 12.1328 3.6739L12.5569 0.704467L16.1429 0.704467L16.5726 3.68481C17.9501 3.9658 19.2596 4.50894 20.4285 5.28416L22.8522 3.48832L25.3695 5.98285L23.5462 8.39006C24.3205 9.55009 24.8611 10.8476 25.1382 12.211L28.1348 12.6368L28.1348 16.163L25.1272 16.5888C24.8411 17.9531 24.2932 19.2503 23.5132 20.4097L25.3255 22.8115L22.8081 25.306L20.3789 23.4992C19.209 24.2679 17.8993 24.8036 16.523 25.0768L16.0933 28.0462L12.5073 28.0462L12.0777 25.0658C10.7004 24.7838 9.39112 24.2407 8.22177 23.4665L5.80356 25.2623L3.2807 22.7896L5.10399 20.3824C4.3319 19.2212 3.79151 17.9242 3.51205 16.5615L0.515462 16.1084ZM1.0663 13.0516L1.0663 15.639L3.98027 16.0484L4.01883 16.2449C4.27911 17.674 4.84235 19.0321 5.67136 20.2296L5.78153 20.3933L4.00782 22.735L5.85314 24.5582L8.20524 22.8115L8.3705 22.9206C9.57466 23.7517 10.9435 24.3192 12.3861 24.5855L12.5789 24.6182L12.9976 27.5167L15.6031 27.5167L16.0217 24.6291L16.2145 24.5964C17.6584 24.3384 19.0307 23.7803 20.2412 22.9588L20.4064 22.8497L22.764 24.6019L24.6259 22.7896L22.8632 20.4534L22.9734 20.2896C23.8105 19.0976 24.3832 17.7432 24.6534 16.3158L24.6865 16.1193L27.6115 15.7099L27.6115 13.1226L24.6975 12.7132L24.6589 12.5167C24.4036 11.0862 23.8399 9.72705 23.0064 8.53198L22.8962 8.36822L24.6259 6.0156L22.7806 4.19245L20.4285 5.93919L20.2632 5.83001C19.0583 5.00028 17.6897 4.43289 16.2476 4.16517L16.0548 4.13242L15.6361 1.23394L13.0582 1.23394L12.6395 4.12149L12.4467 4.15424C11.0029 4.41222 9.63055 4.97032 8.42007 5.79179L8.26032 5.90097L5.89721 4.14879L4.05188 5.97193L5.82009 8.30818L5.70441 8.46648C4.87743 9.66306 4.31434 11.019 4.05188 12.4457L4.01332 12.6422L1.0663 13.0516ZM6.57474 14.3781C6.57474 12.8591 7.0293 11.3742 7.88092 10.1112C8.73254 8.84821 9.94299 7.86382 11.3592 7.28253C12.7754 6.70123 14.3337 6.54915 15.8371 6.84548C17.3406 7.14182 18.7215 7.8733 19.8055 8.94738C20.8894 10.0215 21.6275 11.3899 21.9266 12.8797C22.2256 14.3695 22.0721 15.9138 21.4855 17.3171C20.8989 18.7205 19.9055 19.92 18.631 20.7639C17.3564 21.6078 15.858 22.0582 14.3251 22.0582C12.2714 22.0539 10.3032 21.2431 8.85155 19.8036C7.3999 18.3641 6.58317 16.4131 6.58026 14.3781L6.57474 14.3781ZM21.5246 14.3781C21.5246 12.967 21.1024 11.5877 20.3113 10.4145C19.5202 9.24123 18.3958 8.32681 17.0803 7.78683C15.7647 7.24686 14.3171 7.10558 12.9206 7.38086C11.524 7.65614 10.2412 8.3356 9.23428 9.33335C8.22741 10.3311 7.54172 11.6023 7.26393 12.9862C6.98613 14.3701 7.12871 15.8046 7.67362 17.1082C8.21854 18.4118 9.14132 19.5261 10.3253 20.31C11.5092 21.0939 12.9012 21.5123 14.3251 21.5123C16.2346 21.5109 18.0656 20.759 19.4163 19.4215C20.767 18.084 21.5272 16.2702 21.5302 14.3781L21.5246 14.3781Z"/>
</mask>
<path d="M0.515462 16.1084L0.515462 12.5822L3.52307 12.1564C3.8103 10.7915 4.36015 9.49426 5.14255 8.33547L3.32477 5.93919L5.84212 3.44464L8.27686 5.25141C9.44584 4.48105 10.7558 3.94513 12.1328 3.6739L12.5569 0.704467L16.1429 0.704467L16.5726 3.68481C17.9501 3.9658 19.2596 4.50894 20.4285 5.28416L22.8522 3.48832L25.3695 5.98285L23.5462 8.39006C24.3205 9.55009 24.8611 10.8476 25.1382 12.211L28.1348 12.6368L28.1348 16.163L25.1272 16.5888C24.8411 17.9531 24.2932 19.2503 23.5132 20.4097L25.3255 22.8115L22.8081 25.306L20.3789 23.4992C19.209 24.2679 17.8993 24.8036 16.523 25.0768L16.0933 28.0462L12.5073 28.0462L12.0777 25.0658C10.7004 24.7838 9.39112 24.2407 8.22177 23.4665L5.80356 25.2623L3.2807 22.7896L5.10399 20.3824C4.3319 19.2212 3.79151 17.9242 3.51205 16.5615L0.515462 16.1084ZM1.0663 13.0516L1.0663 15.639L3.98027 16.0484L4.01883 16.2449C4.27911 17.674 4.84235 19.0321 5.67136 20.2296L5.78153 20.3933L4.00782 22.735L5.85314 24.5582L8.20524 22.8115L8.3705 22.9206C9.57466 23.7517 10.9435 24.3192 12.3861 24.5855L12.5789 24.6182L12.9976 27.5167L15.6031 27.5167L16.0217 24.6291L16.2145 24.5964C17.6584 24.3384 19.0307 23.7803 20.2412 22.9588L20.4064 22.8497L22.764 24.6019L24.6259 22.7896L22.8632 20.4534L22.9734 20.2896C23.8105 19.0976 24.3832 17.7432 24.6534 16.3158L24.6865 16.1193L27.6115 15.7099L27.6115 13.1226L24.6975 12.7132L24.6589 12.5167C24.4036 11.0862 23.8399 9.72705 23.0064 8.53198L22.8962 8.36822L24.6259 6.0156L22.7806 4.19245L20.4285 5.93919L20.2632 5.83001C19.0583 5.00028 17.6897 4.43289 16.2476 4.16517L16.0548 4.13242L15.6361 1.23394L13.0582 1.23394L12.6395 4.12149L12.4467 4.15424C11.0029 4.41222 9.63055 4.97032 8.42007 5.79179L8.26032 5.90097L5.89721 4.14879L4.05188 5.97193L5.82009 8.30818L5.70441 8.46648C4.87743 9.66306 4.31434 11.019 4.05188 12.4457L4.01332 12.6422L1.0663 13.0516ZM6.57474 14.3781C6.57474 12.8591 7.0293 11.3742 7.88092 10.1112C8.73254 8.84821 9.94299 7.86382 11.3592 7.28253C12.7754 6.70123 14.3337 6.54915 15.8371 6.84548C17.3406 7.14182 18.7215 7.8733 19.8055 8.94738C20.8894 10.0215 21.6275 11.3899 21.9266 12.8797C22.2256 14.3695 22.0721 15.9138 21.4855 17.3171C20.8989 18.7205 19.9055 19.92 18.631 20.7639C17.3564 21.6078 15.858 22.0582 14.3251 22.0582C12.2714 22.0539 10.3032 21.2431 8.85155 19.8036C7.3999 18.3641 6.58317 16.4131 6.58026 14.3781L6.57474 14.3781ZM21.5246 14.3781C21.5246 12.967 21.1024 11.5877 20.3113 10.4145C19.5202 9.24123 18.3958 8.32681 17.0803 7.78683C15.7647 7.24686 14.3171 7.10558 12.9206 7.38086C11.524 7.65614 10.2412 8.3356 9.23428 9.33335C8.22741 10.3311 7.54172 11.6023 7.26393 12.9862C6.98613 14.3701 7.12871 15.8046 7.67362 17.1082C8.21854 18.4118 9.14132 19.5261 10.3253 20.31C11.5092 21.0939 12.9012 21.5123 14.3251 21.5123C16.2346 21.5109 18.0656 20.759 19.4163 19.4215C20.767 18.084 21.5272 16.2702 21.5302 14.3781L21.5246 14.3781Z" fill="#263238"/>
<path d="M0.515462 16.1084L0.515462 12.5822L3.52307 12.1564C3.8103 10.7915 4.36015 9.49426 5.14255 8.33547L3.32477 5.93919L5.84212 3.44464L8.27686 5.25141C9.44584 4.48105 10.7558 3.94513 12.1328 3.6739L12.5569 0.704467L16.1429 0.704467L16.5726 3.68481C17.9501 3.9658 19.2596 4.50894 20.4285 5.28416L22.8522 3.48832L25.3695 5.98285L23.5462 8.39006C24.3205 9.55009 24.8611 10.8476 25.1382 12.211L28.1348 12.6368L28.1348 16.163L25.1272 16.5888C24.8411 17.9531 24.2932 19.2503 23.5132 20.4097L25.3255 22.8115L22.8081 25.306L20.3789 23.4992C19.209 24.2679 17.8993 24.8036 16.523 25.0768L16.0933 28.0462L12.5073 28.0462L12.0777 25.0658C10.7004 24.7838 9.39112 24.2407 8.22177 23.4665L5.80356 25.2623L3.2807 22.7896L5.10399 20.3824C4.3319 19.2212 3.79151 17.9242 3.51205 16.5615L0.515462 16.1084ZM1.0663 13.0516L1.0663 15.639L3.98027 16.0484L4.01883 16.2449C4.27911 17.674 4.84235 19.0321 5.67136 20.2296L5.78153 20.3933L4.00782 22.735L5.85314 24.5582L8.20524 22.8115L8.3705 22.9206C9.57466 23.7517 10.9435 24.3192 12.3861 24.5855L12.5789 24.6182L12.9976 27.5167L15.6031 27.5167L16.0217 24.6291L16.2145 24.5964C17.6584 24.3384 19.0307 23.7803 20.2412 22.9588L20.4064 22.8497L22.764 24.6019L24.6259 22.7896L22.8632 20.4534L22.9734 20.2896C23.8105 19.0976 24.3832 17.7432 24.6534 16.3158L24.6865 16.1193L27.6115 15.7099L27.6115 13.1226L24.6975 12.7132L24.6589 12.5167C24.4036 11.0862 23.8399 9.72705 23.0064 8.53198L22.8962 8.36822L24.6259 6.0156L22.7806 4.19245L20.4285 5.93919L20.2632 5.83001C19.0583 5.00028 17.6897 4.43289 16.2476 4.16517L16.0548 4.13242L15.6361 1.23394L13.0582 1.23394L12.6395 4.12149L12.4467 4.15424C11.0029 4.41222 9.63055 4.97032 8.42007 5.79179L8.26032 5.90097L5.89721 4.14879L4.05188 5.97193L5.82009 8.30818L5.70441 8.46648C4.87743 9.66306 4.31434 11.019 4.05188 12.4457L4.01332 12.6422L1.0663 13.0516ZM6.57474 14.3781C6.57474 12.8591 7.0293 11.3742 7.88092 10.1112C8.73254 8.84821 9.94299 7.86382 11.3592 7.28253C12.7754 6.70123 14.3337 6.54915 15.8371 6.84548C17.3406 7.14182 18.7215 7.8733 19.8055 8.94738C20.8894 10.0215 21.6275 11.3899 21.9266 12.8797C22.2256 14.3695 22.0721 15.9138 21.4855 17.3171C20.8989 18.7205 19.9055 19.92 18.631 20.7639C17.3564 21.6078 15.858 22.0582 14.3251 22.0582C12.2714 22.0539 10.3032 21.2431 8.85155 19.8036C7.3999 18.3641 6.58317 16.4131 6.58026 14.3781L6.57474 14.3781ZM21.5246 14.3781C21.5246 12.967 21.1024 11.5877 20.3113 10.4145C19.5202 9.24123 18.3958 8.32681 17.0803 7.78683C15.7647 7.24686 14.3171 7.10558 12.9206 7.38086C11.524 7.65614 10.2412 8.3356 9.23428 9.33335C8.22741 10.3311 7.54172 11.6023 7.26393 12.9862C6.98613 14.3701 7.12871 15.8046 7.67362 17.1082C8.21854 18.4118 9.14132 19.5261 10.3253 20.31C11.5092 21.0939 12.9012 21.5123 14.3251 21.5123C16.2346 21.5109 18.0656 20.759 19.4163 19.4215C20.767 18.084 21.5272 16.2702 21.5302 14.3781L21.5246 14.3781Z" stroke="black" stroke-width="2" mask="url(#path-1-inside-1_68_3402)"/>
<path d="M0.515462 16.1084L0.515462 12.5822L3.52307 12.1564C3.8103 10.7915 4.36015 9.49426 5.14255 8.33547L3.32477 5.93919L5.84212 3.44464L8.27686 5.25141C9.44584 4.48105 10.7558 3.94513 12.1328 3.6739L12.5569 0.704467L16.1429 0.704467L16.5726 3.68481C17.9501 3.9658 19.2596 4.50894 20.4285 5.28416L22.8522 3.48832L25.3695 5.98285L23.5462 8.39006C24.3205 9.55009 24.8611 10.8476 25.1382 12.211L28.1348 12.6368L28.1348 16.163L25.1272 16.5888C24.8411 17.9531 24.2932 19.2503 23.5132 20.4097L25.3255 22.8115L22.8081 25.306L20.3789 23.4992C19.209 24.2679 17.8993 24.8036 16.523 25.0768L16.0933 28.0462L12.5073 28.0462L12.0777 25.0658C10.7004 24.7838 9.39112 24.2407 8.22177 23.4665L5.80356 25.2623L3.2807 22.7896L5.10399 20.3824C4.3319 19.2212 3.79151 17.9242 3.51205 16.5615L0.515462 16.1084ZM1.0663 13.0516L1.0663 15.639L3.98027 16.0484L4.01883 16.2449C4.27911 17.674 4.84235 19.0321 5.67136 20.2296L5.78153 20.3933L4.00782 22.735L5.85314 24.5582L8.20524 22.8115L8.3705 22.9206C9.57466 23.7517 10.9435 24.3192 12.3861 24.5855L12.5789 24.6182L12.9976 27.5167L15.6031 27.5167L16.0217 24.6291L16.2145 24.5964C17.6584 24.3384 19.0307 23.7803 20.2412 22.9588L20.4064 22.8497L22.764 24.6019L24.6259 22.7896L22.8632 20.4534L22.9734 20.2896C23.8105 19.0976 24.3832 17.7432 24.6534 16.3158L24.6865 16.1193L27.6115 15.7099L27.6115 13.1226L24.6975 12.7132L24.6589 12.5167C24.4036 11.0862 23.8399 9.72705 23.0064 8.53198L22.8962 8.36822L24.6259 6.0156L22.7806 4.19245L20.4285 5.93919L20.2632 5.83001C19.0583 5.00028 17.6897 4.43289 16.2476 4.16517L16.0548 4.13242L15.6361 1.23394L13.0582 1.23394L12.6395 4.12149L12.4467 4.15424C11.0029 4.41222 9.63055 4.97032 8.42007 5.79179L8.26032 5.90097L5.89721 4.14879L4.05188 5.97193L5.82009 8.30818L5.70441 8.46648C4.87743 9.66306 4.31434 11.019 4.05188 12.4457L4.01332 12.6422L1.0663 13.0516ZM6.57474 14.3781C6.57474 12.8591 7.0293 11.3742 7.88092 10.1112C8.73254 8.84821 9.94299 7.86382 11.3592 7.28253C12.7754 6.70123 14.3337 6.54915 15.8371 6.84548C17.3406 7.14182 18.7215 7.8733 19.8055 8.94738C20.8894 10.0215 21.6275 11.3899 21.9266 12.8797C22.2256 14.3695 22.0721 15.9138 21.4855 17.3171C20.8989 18.7205 19.9055 19.92 18.631 20.7639C17.3564 21.6078 15.858 22.0582 14.3251 22.0582C12.2714 22.0539 10.3032 21.2431 8.85155 19.8036C7.3999 18.3641 6.58317 16.4131 6.58026 14.3781L6.57474 14.3781ZM21.5246 14.3781C21.5246 12.967 21.1024 11.5877 20.3113 10.4145C19.5202 9.24123 18.3958 8.32681 17.0803 7.78683C15.7647 7.24686 14.3171 7.10558 12.9206 7.38086C11.524 7.65614 10.2412 8.3356 9.23428 9.33335C8.22741 10.3311 7.54172 11.6023 7.26393 12.9862C6.98613 14.3701 7.12871 15.8046 7.67362 17.1082C8.21854 18.4118 9.14132 19.5261 10.3253 20.31C11.5092 21.0939 12.9012 21.5123 14.3251 21.5123C16.2346 21.5109 18.0656 20.759 19.4163 19.4215C20.767 18.084 21.5272 16.2702 21.5302 14.3781L21.5246 14.3781Z" stroke="black" stroke-width="2" mask="url(#path-1-inside-1_68_3402)"/>
</svg>
