<svg width="66" height="66" viewBox="0 0 66 66" fill="none" xmlns="http://www.w3.org/2000/svg">
<path d="M33.7908 2.52283C27.5578 2.52221 21.4673 4.40491 16.3039 7.92841C11.1405 11.4519 7.14087 16.4548 4.82009 22.2926C2.49931 28.1304 1.96374 34.5358 3.28238 40.6835C4.60103 46.8312 7.71347 52.4397 12.2188 56.7864L7.77553 65.1593L18.6926 61.5898C22.8619 63.918 27.504 65.252 32.2632 65.4898C37.0224 65.7276 41.7724 64.8627 46.1492 62.9615C50.526 61.0603 54.4134 58.1733 57.5136 54.5215C60.6138 50.8698 62.8444 46.5504 64.0346 41.8942C65.2248 37.238 65.3429 32.3686 64.38 27.6592C63.417 22.9498 61.3985 18.5253 58.4791 14.7249C55.5597 10.9244 51.8169 7.84886 47.5376 5.73381C43.2582 3.61875 38.5559 2.52037 33.7908 2.52283Z" fill="#263238"/>
<path d="M33.7911 65.8093C28.4954 65.8092 23.2853 64.4602 18.6437 61.8873L7.85769 65.4182C7.80582 65.4336 7.75071 65.434 7.69861 65.4194C7.64651 65.4048 7.59952 65.3758 7.56295 65.3356C7.52827 65.2928 7.50713 65.2406 7.50226 65.1856C7.49739 65.1306 7.50902 65.0753 7.53564 65.0271L11.9025 56.8415C8.16749 53.1903 5.38668 48.6624 3.80833 43.6623C2.22998 38.6622 1.90322 33.3455 2.85724 28.1869C3.81126 23.0283 6.01636 18.1884 9.27563 14.0994C12.5349 10.0104 16.7469 6.79953 21.5355 4.75356C26.3241 2.70758 31.5402 1.89017 36.7182 2.37431C41.8961 2.85844 46.8746 4.62906 51.2092 7.52806C55.5438 10.427 59.0995 14.3642 61.5589 18.9879C64.0182 23.6116 65.3046 28.7779 65.3032 34.0256C65.2945 42.4553 61.9712 50.5371 56.0629 56.4962C50.1547 62.4554 42.1445 65.8049 33.7911 65.8093ZM18.671 61.3144C18.7176 61.3135 18.7633 61.327 18.802 61.353C24.7413 64.6723 31.5974 65.9288 38.314 64.9287C45.0306 63.9287 51.235 60.7277 55.9713 55.8189C60.7076 50.9101 63.713 44.5658 64.5245 37.7635C65.336 30.9613 63.9085 24.0785 60.4621 18.1755C57.0156 12.2726 51.7413 7.677 45.4519 5.09686C39.1624 2.51673 32.2067 2.09518 25.6564 3.89717C19.1062 5.69916 13.3248 9.62469 9.20303 15.069C5.08127 20.5133 2.84782 27.1742 2.84678 34.0256C2.82972 38.2488 3.66881 42.4309 5.31249 46.3148C6.95616 50.1987 9.36969 53.7023 12.4046 56.6102C12.447 56.6525 12.475 56.7072 12.4848 56.7665C12.4946 56.8259 12.4857 56.8868 12.4592 56.9407L8.33805 64.7076L18.5837 61.353L18.671 61.3144Z" fill="#263238"/>
<path d="M32.3223 0.275517C26.0893 0.274895 19.9987 2.1576 14.8354 5.6811C9.67204 9.2046 5.67236 14.2075 3.35159 20.0453C1.03081 25.8831 0.495238 32.2885 1.81388 38.4362C3.13252 44.5839 6.24497 50.1924 10.7503 54.5391L6.30703 62.9065L17.2241 59.3425C21.3934 61.6706 26.0355 63.0047 30.7947 63.2425C35.5539 63.4803 40.3039 62.6154 44.6807 60.7142C49.0575 58.813 52.9449 55.926 56.0451 52.2742C59.1453 48.6225 61.3759 44.303 62.5661 39.6468C63.7563 34.9906 63.8744 30.1213 62.9115 25.4119C61.9485 20.7025 59.93 16.278 57.0106 12.4776C54.0912 8.67713 50.3484 5.60154 46.0691 3.48649C41.7897 1.37144 37.0874 0.273059 32.3223 0.275517Z" fill="white"/>
<path d="M32.3224 63.5564C27.0276 63.5542 21.8185 62.2073 17.175 59.6399L6.39441 63.1708C6.34213 63.1869 6.28629 63.1872 6.23387 63.1715C6.18145 63.1558 6.13477 63.1249 6.09964 63.0826C6.0654 63.0398 6.04411 62.988 6.03831 62.9333C6.0325 62.8786 6.04242 62.8233 6.06689 62.7742L10.4337 54.5941C5.18765 49.4616 1.8735 42.6479 1.05907 35.3203C0.244648 27.9926 1.98064 20.6073 5.96962 14.4295C9.95861 8.25169 15.9523 3.66601 22.9238 1.4581C29.8952 -0.749808 37.4106 -0.442512 44.1822 2.32734C50.9538 5.09719 56.5602 10.1572 60.0408 16.6404C63.5215 23.1236 64.6597 30.6265 63.2605 37.8636C61.8612 45.1007 58.0117 51.6216 52.3714 56.3089C46.731 60.9963 39.651 63.5584 32.3442 63.5564H32.3224ZM17.2077 59.067C17.2534 59.0674 17.2983 59.0787 17.3387 59.1C24.2293 62.9602 32.3176 64.0285 39.9605 62.0878C47.6034 60.1472 54.2275 55.3431 58.4872 48.6517C62.7468 41.9603 64.3225 33.8834 62.894 26.062C61.4655 18.2405 57.1401 11.2612 50.7965 6.54189C44.4528 1.82259 36.5668 -0.282703 28.7405 0.65374C20.9143 1.59018 13.7348 5.49812 8.66062 11.5836C3.58649 17.6691 0.998331 25.4757 1.42195 33.4173C1.84558 41.359 5.24921 48.8401 10.9414 54.3407C10.9839 54.3819 11.0117 54.4361 11.0206 54.4948C11.0295 54.5536 11.0189 54.6137 10.9905 54.6657L6.86929 62.4326L17.1204 59.078L17.2077 59.067Z" fill="#263238"/>
<path d="M21.8696 44.7616L9.86084 36.2125V31.6791L21.8696 23.0474V27.6194L13.2724 33.9265L21.8696 40.2337V44.7616Z" fill="#92E3A9"/>
<path d="M25.5212 46.2875L34.6643 11.9974H38.5671L29.3804 46.2875H25.5212Z" fill="#92E3A9"/>
<path d="M42.2134 44.7616V40.2337L50.8542 33.8825L42.2134 27.6194V23.0474L54.2549 31.6405V36.1685L42.2134 44.7616Z" fill="#92E3A9"/>
<path d="M23.3596 42.8832L11.3508 34.3341V29.8062L23.3596 21.1689V25.7409L14.7569 32.0481L23.3596 38.3553V42.8832Z" fill="#263238"/>
<path d="M27.0059 44.409L36.1489 10.1245H40.0517L30.865 44.409H27.0059Z" fill="#263238"/>
<path d="M43.698 42.8832V38.3553L52.3498 32.0096L43.698 25.7409V21.1689L55.7395 29.7621V34.2956L43.698 42.8832Z" fill="#263238"/>
</svg>
